<svg xmlns="http://www.w3.org/2000/svg" viewBox="0 0 149.91 35.04"><defs><style>.cls-1{fill:#fff;}</style></defs><title>Asset 2</title><g id="Layer_2" data-name="Layer 2"><g id="Layer_1-2" data-name="Layer 1"><path class="cls-1" d="M16.82,17.87A14.52,14.52,0,0,1,4.91,19.74C2.18,19,1,17.42.84,15.92c-2.46,3.2.85,8.69,5.27,8.39a3.59,3.59,0,0,0,2.11,6.37,5.79,5.79,0,0,0,4-1.74A14.49,14.49,0,0,0,17,17.73l-.11.08"/><path class="cls-1" d="M13.64,4.43c-5.57-5.78-11.23,2.4-7.86,7a3.6,3.6,0,0,0-4.7,3.83c.18,1.51,1.36,3,4.08,3.82a14.52,14.52,0,0,0,11.91-1.9A14.57,14.57,0,0,1,14.51,6.1C14.56,5.34,13.74,4.54,13.64,4.43Z"/><path class="cls-1" d="M17.86,16.5l0,0,.06-.09a4.43,4.43,0,0,1,.29-.42,3.24,3.24,0,0,1,.49-.49,14.5,14.5,0,0,1,10.73-4.92,8.35,8.35,0,0,1,2.2.28C34.4,6,27.44,1.75,23.32,4.75,24.83.41,17.75-3,15.68,4.09a11.48,11.48,0,0,0-.32,1.32A14.63,14.63,0,0,0,17.86,16.5Z"/><path class="cls-1" d="M18.57,17.33l0,0,.11,0a3.36,3.36,0,0,1,.48.14,2.64,2.64,0,0,1,.63.31,14.48,14.48,0,0,1,8.11,8.56,8.1,8.1,0,0,1,.44,2.18c5.52,1,7.3-6.94,3.14-9.87,4.59,0,5.54-7.78-1.84-7.45-.47,0-.92.06-1.36.12A14.64,14.64,0,0,0,18.57,17.33Z"/><path class="cls-1" d="M17.93,18l0,0a.45.45,0,0,0,0,.12,2.83,2.83,0,0,1,0,.5,3.27,3.27,0,0,1-.08.7A14.51,14.51,0,0,1,12.37,29.7a8.34,8.34,0,0,1-1.91,1.13c.83,5.54,8.94,4.64,10.35-.25,1.47,4.35,9.16,2.71,6.45-4.16-.17-.44-.36-.85-.56-1.25A14.61,14.61,0,0,0,17.93,18Z"/><path class="cls-1" d="M52.49,1.64a.69.69,0,0,1,.39.64,1.65,1.65,0,0,1-.63,1.11,29,29,0,0,0-2.59,2.92Q48.33,8,47,9.85t-2.47,3.73q-1.17,1.9-2,3.51c-.58,1.07-1,2-1.39,2.82a5.23,5.23,0,0,0-.52,1.72c0,.26.09.39.26.39s.81-.33,1.54-1,1.61-1.55,2.65-2.65,2.21-2.33,3.5-3.71,2.66-2.79,4.06-4.22,2.85-2.83,4.3-4.19a49.55,49.55,0,0,1,4.27-3.57A.93.93,0,0,0,61.6,2a.83.83,0,0,0-.41-.68A3.93,3.93,0,0,1,63.3.53,2.15,2.15,0,0,1,64.62,1a1.41,1.41,0,0,1,.61,1.18,1.46,1.46,0,0,1-.2.73,1.79,1.79,0,0,1-.65.59A33.62,33.62,0,0,0,59.45,7c-1.69,1.43-3.36,3-5,4.54s-3.3,3.21-4.89,4.83-3.1,3.07-4.51,4.36a38.51,38.51,0,0,1-3.85,3.15,5.5,5.5,0,0,1-2.93,1.21,1.3,1.3,0,0,1-1-.43,1.66,1.66,0,0,1-.39-1.18,8.16,8.16,0,0,1,.48-2.34,30,30,0,0,1,1.34-3.32c.56-1.23,1.23-2.53,2-3.9s1.6-2.74,2.5-4.09S45,7.19,46,5.91A32.91,32.91,0,0,1,49,2.5a3.24,3.24,0,0,1,1.25-.82,3.7,3.7,0,0,1,1.31-.25A2,2,0,0,1,52.49,1.64Z"/><path class="cls-1" d="M63.89,11.1c.23.15.34.3.34.45a1.35,1.35,0,0,1-.19.64c-.42.72-1,1.54-1.61,2.47s-1.29,1.86-1.91,2.79a27,27,0,0,0-1.59,2.66,4.73,4.73,0,0,0-.67,2.09,1.59,1.59,0,0,0,.17.75.58.58,0,0,0,.57.36,2.77,2.77,0,0,0,1.22-.39,10.37,10.37,0,0,0,1.54-1c.53-.4,1.07-.85,1.62-1.33s1-.95,1.44-1.38a.73.73,0,0,1,.52-.29c.2,0,.3.11.3.32a.94.94,0,0,1-.1.4,1.4,1.4,0,0,1-.31.43l-1.6,1.52c-.64.6-1.32,1.19-2.05,1.75a14.39,14.39,0,0,1-2.25,1.43,4.7,4.7,0,0,1-2.11.59,1.74,1.74,0,0,1-1.54-.81,3.66,3.66,0,0,1-.54-2.09,5.71,5.71,0,0,1,.32-1.8,13.89,13.89,0,0,1,.83-1.95,21.91,21.91,0,0,1,1.19-2c.45-.67.9-1.31,1.37-1.94-.44.34-1.22,1-2.32,1.83s-2.42,2-4,3.47a.67.67,0,0,1-.45.21.46.46,0,0,1-.27-.09.3.3,0,0,1-.13-.27,1,1,0,0,1,.37-.64c.81-.79,1.69-1.59,2.63-2.4s1.87-1.59,2.8-2.34,1.82-1.43,2.69-2a25.66,25.66,0,0,1,2.26-1.44,1.57,1.57,0,0,1,.67-.18A1.27,1.27,0,0,1,63.89,11.1Zm4-4.47a2.32,2.32,0,0,1-1.6.55c-.71,0-1.07-.34-1.07-1a1.79,1.79,0,0,1,.2-.74A3.24,3.24,0,0,1,66,4.66a4.26,4.26,0,0,1,.74-.59,1.67,1.67,0,0,1,.85-.25.86.86,0,0,1,.71.34,1.49,1.49,0,0,1,.26.91A2,2,0,0,1,67.9,6.63Z"/><path class="cls-1" d="M84.28.59a1.39,1.39,0,0,1,.45,1.09A3.87,3.87,0,0,1,84,3.59,18.58,18.58,0,0,1,82.28,6c-.72.84-1.51,1.71-2.39,2.59s-1.75,1.71-2.61,2.48-1.66,1.48-2.39,2.1-1.3,1.08-1.69,1.39c-.22.43-.53,1-.93,1.73s-.78,1.47-1.15,2.22-.7,1.46-1,2.11A4.38,4.38,0,0,0,69.71,22c0,.33.29.5.86.5a3.55,3.55,0,0,0,1.33-.29,8.62,8.62,0,0,0,1.41-.73,14.08,14.08,0,0,0,1.39-1,15.52,15.52,0,0,0,1.24-1.14.84.84,0,0,1,.49-.29c.19,0,.29.12.29.36a1.26,1.26,0,0,1-.33.71A14.74,14.74,0,0,1,75,21.4,24,24,0,0,1,72.92,23a14.46,14.46,0,0,1-2.37,1.32,5.67,5.67,0,0,1-2.28.56,1.41,1.41,0,0,1-1.6-1.57A5.6,5.6,0,0,1,67,21.52c.23-.69.5-1.37.79-2.05s.6-1.31.89-1.88.51-1,.63-1.18c-.14.1-.39.29-.72.57s-.7.61-1.09,1-.81.73-1.23,1.12-.8.75-1.15,1.06a1.06,1.06,0,0,1-.59.28c-.2,0-.29-.1-.29-.32a1.13,1.13,0,0,1,.44-.78c.44-.43.93-.89,1.46-1.38s1.06-1,1.58-1.41l1.43-1.25c.43-.39.78-.68,1-.9.47-.93,1-1.92,1.65-3s1.31-2.12,2-3.17,1.49-2.06,2.26-3a24.92,24.92,0,0,1,2.34-2.57A14.13,14.13,0,0,1,80.76.84a3.81,3.81,0,0,1,2-.66A2.18,2.18,0,0,1,84.28.59ZM82.73,2c-.13,0-.39.17-.8.52a16.92,16.92,0,0,0-1.41,1.36c-.53.56-1.11,1.2-1.74,1.93S77.54,7.28,77,8s-1.1,1.52-1.57,2.27a14.68,14.68,0,0,0-1.08,2c1.61-1.5,3-2.82,4.1-4s2-2.12,2.76-2.95a16.85,16.85,0,0,0,1.56-2,2.61,2.61,0,0,0,.48-1.09C83.21,2.11,83.05,2,82.73,2Z"/><path class="cls-1" d="M95.52.59A1.42,1.42,0,0,1,96,1.68a4,4,0,0,1-.68,1.91A20.68,20.68,0,0,1,93.52,6c-.72.84-1.52,1.71-2.4,2.59s-1.74,1.71-2.61,2.48-1.66,1.48-2.39,2.1-1.29,1.08-1.69,1.39c-.22.43-.53,1-.92,1.73s-.78,1.47-1.15,2.22-.7,1.46-1,2.11A4.28,4.28,0,0,0,81,22c0,.33.28.5.85.5a3.55,3.55,0,0,0,1.33-.29,8.62,8.62,0,0,0,1.41-.73,13,13,0,0,0,1.39-1c.46-.38.87-.76,1.25-1.14a.79.79,0,0,1,.48-.29c.2,0,.29.12.29.36a1.26,1.26,0,0,1-.33.71,14.74,14.74,0,0,1-1.39,1.31A24,24,0,0,1,84.15,23a14.46,14.46,0,0,1-2.37,1.32,5.67,5.67,0,0,1-2.28.56,1.4,1.4,0,0,1-1.59-1.57,5.55,5.55,0,0,1,.35-1.76c.23-.69.5-1.37.8-2.05s.59-1.31.89-1.88.5-1,.63-1.18c-.15.1-.39.29-.73.57s-.7.61-1.09,1-.8.73-1.22,1.12-.81.75-1.15,1.06a1.11,1.11,0,0,1-.6.28c-.19,0-.29-.1-.29-.32a1.17,1.17,0,0,1,.44-.78l1.47-1.38c.53-.49,1-1,1.57-1.41l1.43-1.25c.43-.39.78-.68,1.06-.9.47-.93,1-1.92,1.65-3s1.31-2.12,2-3.17,1.48-2.06,2.26-3a23.79,23.79,0,0,1,2.33-2.57A13.74,13.74,0,0,1,92,.84a3.76,3.76,0,0,1,2-.66A2.2,2.2,0,0,1,95.52.59ZM94,2a2,2,0,0,0-.8.52c-.4.34-.87.8-1.41,1.36S90.64,5.08,90,5.81,88.78,7.28,88.19,8s-1.1,1.52-1.57,2.27a13.5,13.5,0,0,0-1.07,2c1.6-1.5,3-2.82,4.09-4s2-2.12,2.76-2.95a16.85,16.85,0,0,0,1.56-2,2.61,2.61,0,0,0,.48-1.09C94.44,2.11,94.28,2,94,2Z"/><path class="cls-1" d="M98.82,23.28a2.76,2.76,0,0,0,1.28-.49,15.84,15.84,0,0,0,1.67-1.18c.58-.46,1.14-.95,1.7-1.45l1.47-1.32a.76.76,0,0,1,.55-.25.26.26,0,0,1,.3.29,1.4,1.4,0,0,1-.52.86L104,21c-.57.54-1.19,1.07-1.85,1.61A14.13,14.13,0,0,1,100,24a4.22,4.22,0,0,1-2,.59A2.17,2.17,0,0,1,96.37,24a2,2,0,0,1-.56-1.47,3.8,3.8,0,0,1,.54-2.09,15.68,15.68,0,0,1,1.1-1.52c-.48.41-1.1.93-1.9,1.58s-1.61,1.27-2.46,1.89A22.51,22.51,0,0,1,90.57,24a4.63,4.63,0,0,1-2.06.68,2,2,0,0,1-1.63-.57,2.15,2.15,0,0,1-.48-1.43A6,6,0,0,1,87.08,20a11.46,11.46,0,0,1,1.86-2.62A18.65,18.65,0,0,1,91.62,15a22.67,22.67,0,0,1,3.23-1.91,19.08,19.08,0,0,1,3.49-1.29,13.41,13.41,0,0,1,3.41-.46,11.43,11.43,0,0,1,2.89.3,2.87,2.87,0,0,1,1.52.81c-.94.95-1.89,1.95-2.84,3s-1.81,2-2.58,3S99.36,20.25,98.87,21a3.76,3.76,0,0,0-.72,1.67C98.15,23.07,98.37,23.28,98.82,23.28Zm-8.1-1.92a.43.43,0,0,0,.42.23,2.51,2.51,0,0,0,1-.3,14.91,14.91,0,0,0,1.43-.8c.53-.34,1.1-.72,1.69-1.17S96.44,18.42,97,18c1-.88,2.06-1.77,3.07-2.67l2.53-2.23a2.41,2.41,0,0,0-.89-.14,10.09,10.09,0,0,0-3,.64,14.58,14.58,0,0,0-4.28,2.54,18.34,18.34,0,0,0-3,2.88,3.42,3.42,0,0,0-.89,1.87A1,1,0,0,0,90.72,21.36Z"/><path class="cls-1" d="M124,.59a1.39,1.39,0,0,1,.45,1.09,3.87,3.87,0,0,1-.69,1.91A20.68,20.68,0,0,1,122,6c-.72.84-1.52,1.71-2.39,2.59s-1.75,1.71-2.62,2.48-1.66,1.48-2.39,2.1-1.29,1.08-1.68,1.39L112,16.28c-.4.73-.78,1.47-1.15,2.22s-.7,1.46-1,2.11a4.12,4.12,0,0,0-.43,1.38c0,.33.28.5.85.5a3.6,3.6,0,0,0,1.34-.29,8.62,8.62,0,0,0,1.41-.73,14.08,14.08,0,0,0,1.39-1c.45-.38.87-.76,1.24-1.14a.85.85,0,0,1,.48-.29q.3,0,.3.36a1.22,1.22,0,0,1-.34.71,13.58,13.58,0,0,1-1.39,1.31A25.44,25.44,0,0,1,112.63,23a15,15,0,0,1-2.38,1.32,5.59,5.59,0,0,1-2.27.56,1.4,1.4,0,0,1-1.6-1.57,5.84,5.84,0,0,1,.35-1.76c.24-.69.5-1.37.8-2.05s.59-1.31.89-1.88.51-1,.63-1.18a9.16,9.16,0,0,0-.72.57l-1.1,1L106,19.07c-.42.4-.81.75-1.15,1.06a1.12,1.12,0,0,1-.59.28c-.2,0-.3-.1-.3-.32a1.17,1.17,0,0,1,.44-.78l1.47-1.38c.53-.49,1.06-1,1.58-1.41l1.42-1.25c.44-.39.79-.68,1.06-.9.47-.93,1-1.92,1.65-3s1.31-2.12,2-3.17,1.48-2.06,2.26-3a24.92,24.92,0,0,1,2.34-2.57A13.28,13.28,0,0,1,120.47.84a3.76,3.76,0,0,1,2-.66A2.2,2.2,0,0,1,124,.59ZM122.43,2a1.94,1.94,0,0,0-.79.52,16.92,16.92,0,0,0-1.41,1.36c-.53.56-1.11,1.2-1.74,1.93S117.25,7.28,116.67,8s-1.11,1.52-1.58,2.27a13.5,13.5,0,0,0-1.07,2c1.6-1.5,3-2.82,4.09-4s2-2.12,2.77-2.95a17.68,17.68,0,0,0,1.55-2,2.67,2.67,0,0,0,.49-1.09C122.92,2.11,122.75,2,122.43,2Z"/><path class="cls-1" d="M126.64,10.53c.38.2.58.43.58.69a1,1,0,0,1,0,.2.76.76,0,0,1-.22.3c-.5.53-1.15,1.27-1.95,2.24s-1.6,2-2.39,3a32.87,32.87,0,0,0-2,2.93,4.67,4.67,0,0,0-.85,2.07c0,.38.19.57.59.57a2.92,2.92,0,0,0,1.41-.55,17.38,17.38,0,0,0,2-1.45c.72-.59,1.46-1.27,2.23-2s1.51-1.51,2.22-2.27,1.37-1.5,2-2.22,1.06-1.32,1.41-1.82a.73.73,0,0,1,.66-.32,2,2,0,0,1,.65.12,3.28,3.28,0,0,1,.65.32,2.25,2.25,0,0,1,.48.42.59.59,0,0,1,.19.39.66.66,0,0,1-.15.32l-2.17,2.67c-.73.89-1.39,1.72-2,2.5a24,24,0,0,0-1.45,2.07,3.1,3.1,0,0,0-.55,1.34.54.54,0,0,0,.09.31.42.42,0,0,0,.35.12,2.32,2.32,0,0,0,1-.34,11.86,11.86,0,0,0,1.33-.84q.71-.49,1.35-1.05a6.4,6.4,0,0,0,1-1,.74.74,0,0,1,.52-.28c.2,0,.3.11.3.32a1.05,1.05,0,0,1-.33.68,13.35,13.35,0,0,1-1.23,1.18,17.09,17.09,0,0,1-1.78,1.38,14.06,14.06,0,0,1-2,1.14,4.43,4.43,0,0,1-1.87.48,1.83,1.83,0,0,1-1.32-.39,1.54,1.54,0,0,1-.39-1.14,3.49,3.49,0,0,1,.26-1.29c.18-.43.36-.84.56-1.22a14.41,14.41,0,0,1-1.19,1.08,22.26,22.26,0,0,1-1.94,1.44,17.89,17.89,0,0,1-2.23,1.27,4.78,4.78,0,0,1-2,.54c-1.21,0-1.81-.54-1.81-1.61a4,4,0,0,1,.38-1.63,16.89,16.89,0,0,1,.91-1.73c.35-.57.69-1.09,1-1.56s.6-.81.78-1.05c-.62.6-1.13,1.08-1.54,1.45s-.8.73-1.17,1.09l-.74.71a.75.75,0,0,1-.52.25c-.22,0-.33-.1-.33-.32a1.06,1.06,0,0,1,.41-.75c.42-.4,1-1,1.87-1.73l2.63-2.42c.93-.85,1.83-1.71,2.71-2.55s1.56-1.56,2-2.13a.7.7,0,0,1,.6-.22A2.27,2.27,0,0,1,126.64,10.53Z"/><path class="cls-1" d="M147.31,17.34a9.44,9.44,0,0,1-1.54,2.38,9.59,9.59,0,0,1-2.11,1.77,9.49,9.49,0,0,1-2.28,1,1.84,1.84,0,0,1,1.07,1.58c.3-.17.71-.41,1.25-.74s1.11-.69,1.74-1.12,1.27-.9,1.93-1.41a20.09,20.09,0,0,0,1.79-1.6.65.65,0,0,1,.45-.25c.2,0,.3.14.3.4a1,1,0,0,1-.34.68A17.32,17.32,0,0,1,148,21.43c-.6.49-1.23,1-1.89,1.42s-1.29.87-1.91,1.25-1.13.69-1.55.93a11.09,11.09,0,0,1-.54,3.25,11.31,11.31,0,0,1-1.6,3.25A9.13,9.13,0,0,1,137.91,34a6.64,6.64,0,0,1-3.61,1,3.61,3.61,0,0,1-1.63-.34,1.36,1.36,0,0,1-.67-1.34,3,3,0,0,1,.46-1.54,9.5,9.5,0,0,1,1.19-1.56,12.89,12.89,0,0,1,1.63-1.46c.6-.47,1.21-.9,1.82-1.31s1.16-.75,1.68-1l1.3-.73a2.19,2.19,0,0,0-.59-1.31,2.39,2.39,0,0,0-1.56-.55.86.86,0,0,1-.63-.33,1,1,0,0,1-.22-.64,1.12,1.12,0,0,1,.16-.57.74.74,0,0,1,.51-.36,7.26,7.26,0,0,0,1.83-.86,14.78,14.78,0,0,0,2.2-1.62,11.6,11.6,0,0,0,1.86-2.06,3.74,3.74,0,0,0,.78-2.14A2.89,2.89,0,0,0,144,13.8a1.33,1.33,0,0,0-1.24-.68,2.8,2.8,0,0,0-1.17.36,14.9,14.9,0,0,0-1.58.93c-.57.38-1.16.81-1.78,1.3s-1.22,1-1.81,1.5-1.17,1-1.71,1.52l-1.41,1.33a.6.6,0,0,1-.44.18c-.25,0-.37-.11-.37-.33a1.2,1.2,0,0,1,.44-.75l2.19-2.07c.94-.88,2-1.77,3.08-2.65a26.23,26.23,0,0,1,3.39-2.29,6.51,6.51,0,0,1,3.1-1,3.19,3.19,0,0,1,1.44.29,2.85,2.85,0,0,1,1,.75,3.17,3.17,0,0,1,.58,1,4.06,4.06,0,0,1,.18,1.2A6.84,6.84,0,0,1,147.31,17.34Zm-9.18,10.74a25.47,25.47,0,0,0-2.09,1.6,15.5,15.5,0,0,0-1.63,1.57,2.11,2.11,0,0,0-.67,1.25.73.73,0,0,0,.89.82,2.79,2.79,0,0,0,1.8-.77,11.22,11.22,0,0,0,1.69-1.8,14.68,14.68,0,0,0,1.33-2.15,7.6,7.6,0,0,0,.7-1.82C139.56,27.14,138.89,27.57,138.13,28.08Z"/></g></g></svg>