<svg xmlns="http://www.w3.org/2000/svg" viewBox="0 0 341.37 108"><defs><style>.cls-1,.cls-3,.cls-4,.cls-5,.cls-6{fill:#00918f;}.cls-1{opacity:0.2;}.cls-2{fill:#99258e;}.cls-3{opacity:0.8;}.cls-4{opacity:0.6;}.cls-5{opacity:0.4;}.cls-7{fill:#808184;}.cls-8{fill:#99258b;}</style></defs><title>Asset 1</title><g id="Layer_2" data-name="Layer 2"><g id="Layer_1-2" data-name="Layer 1"><path class="cls-1" d="M38.3,40.7A33.09,33.09,0,0,1,11.18,45C5,43.16,2.3,39.68,1.9,36.25c-5.59,7.29,2,19.78,12,19.11-6,4.79-2.47,14.23,4.81,14.51,2.64.1,5.77-1,9.12-4,10.6-9.36,11.05-21.78,10.93-25.53l-.27.18"/><path class="cls-2" d="M31.05,10.08C18.38-3.07,5.49,15.56,13.17,26,7.08,23.92,1.82,29.26,2.46,34.74c.4,3.42,3.09,6.9,9.3,8.68a33.09,33.09,0,0,0,27.11-4.31A33.28,33.28,0,0,1,33,13.9C33.15,12.17,31.3,10.33,31.05,10.08Z"/><path class="cls-3" d="M40.67,37.57l.07.08a1.64,1.64,0,0,1,.14-.22,7.41,7.41,0,0,1,.65-.94,7.1,7.1,0,0,1,1.13-1.13A33,33,0,0,1,67.08,24.17a17.8,17.8,0,0,1,5,.64c6.24-11.14-9.61-20.83-19-14C56.54.93,40.43-6.85,35.7,9.31a29.74,29.74,0,0,0-.72,3A33.29,33.29,0,0,0,40.67,37.57Z"/><path class="cls-4" d="M42.3,39.47l-.06.09a2.44,2.44,0,0,1,.26.06,7.77,7.77,0,0,1,1.1.32,7,7,0,0,1,1.43.7A33,33,0,0,1,63.49,60.15a17.78,17.78,0,0,1,1,4.95c12.56,2.33,16.62-15.8,7.14-22.47,10.45.06,12.62-17.71-4.19-17-1.07.05-2.1.14-3.1.28A33.25,33.25,0,0,0,42.3,39.47Z"/><path class="cls-5" d="M40.83,40.87l-.1,0a2.6,2.6,0,0,1,0,.26,9.14,9.14,0,0,1,.06,1.15,7.51,7.51,0,0,1-.2,1.58A33,33,0,0,1,28.17,67.64a18.39,18.39,0,0,1-4.35,2.56c1.89,12.63,20.35,10.58,23.57-.56,3.35,9.9,20.85,6.18,14.69-9.48a30.85,30.85,0,0,0-1.28-2.84A33.24,33.24,0,0,0,40.83,40.87Z"/><path class="cls-6" d="M119.54,3.74a1.57,1.57,0,0,1,.89,1.46A3.8,3.8,0,0,1,119,7.73a66.26,66.26,0,0,0-5.91,6.63q-3,3.87-6,8.07t-5.62,8.51q-2.66,4.31-4.64,8c-1.32,2.45-2.38,4.59-3.16,6.44a12,12,0,0,0-1.19,3.91c0,.6.2.89.59.89q1,0,3.51-2.28t6-6q3.56-3.73,8-8.46t9.25-9.61q4.81-4.89,9.79-9.53a114.89,114.89,0,0,1,9.71-8.14,2.08,2.08,0,0,0,.93-1.63,1.89,1.89,0,0,0-.93-1.55,9,9,0,0,1,4.81-1.71,4.91,4.91,0,0,1,3,1.06A3.25,3.25,0,0,1,148.54,5a3.18,3.18,0,0,1-.46,1.67A3.9,3.9,0,0,1,146.6,8,77,77,0,0,0,135.37,16q-5.75,4.89-11.44,10.35t-11.14,11q-5.45,5.54-10.26,9.93a88.42,88.42,0,0,1-8.78,7.17q-4,2.76-6.67,2.76a3,3,0,0,1-2.32-1,3.86,3.86,0,0,1-.89-2.69A18.57,18.57,0,0,1,85,48.24a67.46,67.46,0,0,1,3-7.57q1.93-4.2,4.56-8.88t5.7-9.32c2-3.09,4.19-6.1,6.41-9a76,76,0,0,1,6.8-7.78,7.48,7.48,0,0,1,2.83-1.87,8.73,8.73,0,0,1,3-.57A4.54,4.54,0,0,1,119.54,3.74Z"/><path class="cls-6" d="M145.5,25.28c.51.35.76.69.76,1a3.25,3.25,0,0,1-.42,1.47q-1.44,2.44-3.67,5.62t-4.35,6.35a66.4,66.4,0,0,0-3.63,6.07,10.9,10.9,0,0,0-1.52,4.76,4,4,0,0,0,.38,1.71,1.34,1.34,0,0,0,1.31.82,6.41,6.41,0,0,0,2.78-.9,26,26,0,0,0,3.51-2.28q1.82-1.38,3.67-3c1.24-1.12,2.34-2.16,3.29-3.14a1.68,1.68,0,0,1,1.19-.65c.45,0,.67.24.67.73a2.33,2.33,0,0,1-.21.9,3,3,0,0,1-.72,1c-1,.93-2.16,2.08-3.63,3.46a57.07,57.07,0,0,1-4.68,4,33,33,0,0,1-5.11,3.26,10.62,10.62,0,0,1-4.81,1.34,4,4,0,0,1-3.51-1.83,8.44,8.44,0,0,1-1.22-4.76A13,13,0,0,1,126.3,47a29.61,29.61,0,0,1,1.9-4.44A45.35,45.35,0,0,1,130.9,38c1-1.52,2-3,3.12-4.4q-1.52,1.14-5.28,4.16c-2.5,2-5.53,4.64-9.07,7.89a1.48,1.48,0,0,1-1,.49A1.15,1.15,0,0,1,118,46a.71.71,0,0,1-.29-.61,2.24,2.24,0,0,1,.84-1.47c1.86-1.79,3.85-3.61,6-5.45s4.27-3.63,6.38-5.34,4.15-3.25,6.12-4.64,3.69-2.48,5.15-3.3a3.55,3.55,0,0,1,1.52-.4A2.94,2.94,0,0,1,145.5,25.28Zm9.12-10.18A5.29,5.29,0,0,1,151,16.36,2.13,2.13,0,0,1,148.54,14a3.83,3.83,0,0,1,.47-1.67,6.53,6.53,0,0,1,1.22-1.71,8.79,8.79,0,0,1,1.69-1.35,3.75,3.75,0,0,1,1.94-.56,1.91,1.91,0,0,1,1.61.77,3.38,3.38,0,0,1,.59,2.08A4.45,4.45,0,0,1,154.62,15.1Z"/><path class="cls-6" d="M191.94,1.34a3.23,3.23,0,0,1,1,2.48,8.85,8.85,0,0,1-1.56,4.35,44.5,44.5,0,0,1-4,5.46c-1.64,1.93-3.45,3.9-5.45,5.91s-4,3.89-6,5.66-3.79,3.35-5.45,4.76-2.94,2.47-3.84,3.17c-.5,1-1.21,2.3-2.11,3.95s-1.77,3.34-2.62,5.05-1.58,3.31-2.23,4.81a9.52,9.52,0,0,0-1,3.13c0,.76.64,1.14,1.94,1.14a8.16,8.16,0,0,0,3-.65A20.53,20.53,0,0,0,167,48.89a31.07,31.07,0,0,0,3.16-2.32A36.43,36.43,0,0,0,172.94,44a1.89,1.89,0,0,1,1.1-.65c.45,0,.67.28.67.82a2.91,2.91,0,0,1-.76,1.63,33.1,33.1,0,0,1-3.16,3,56.17,56.17,0,0,1-4.73,3.58,34.86,34.86,0,0,1-5.4,3,12.91,12.91,0,0,1-5.19,1.26q-3.65,0-3.64-3.57a12.78,12.78,0,0,1,.81-4q.8-2.35,1.81-4.68c.68-1.55,1.35-3,2-4.27s1.15-2.2,1.43-2.69a19.93,19.93,0,0,0-1.64,1.3c-.76.65-1.6,1.39-2.5,2.2S152,42.54,151,43.44s-1.83,1.69-2.62,2.4a2.53,2.53,0,0,1-1.35.65c-.45,0-.67-.25-.67-.73a2.66,2.66,0,0,1,1-1.8c1-1,2.12-2,3.34-3.13s2.4-2.18,3.58-3.22,2.27-2,3.25-2.85,1.79-1.54,2.41-2q1.6-3.18,3.76-6.8t4.64-7.21q2.49-3.59,5.15-6.92a56.47,56.47,0,0,1,5.32-5.86,31.21,31.21,0,0,1,5.11-4A8.82,8.82,0,0,1,188.47.4,5.06,5.06,0,0,1,191.94,1.34Zm-3.55,3.21c-.28,0-.88.4-1.81,1.18a41.71,41.71,0,0,0-3.21,3.1c-1.21,1.27-2.54,2.74-4,4.39s-2.81,3.36-4.14,5.09-2.52,3.46-3.58,5.17a31.61,31.61,0,0,0-2.45,4.6q5.47-5.13,9.33-9t6.29-6.72a39.53,39.53,0,0,0,3.54-4.56,6,6,0,0,0,1.1-2.49C189.49,4.8,189.12,4.55,188.39,4.55Z"/><path class="cls-6" d="M217.52,1.34a3.23,3.23,0,0,1,1,2.48A8.85,8.85,0,0,1,217,8.17a43.48,43.48,0,0,1-4,5.46q-2.44,2.89-5.45,5.91c-2,2-4,3.89-5.95,5.66s-3.78,3.35-5.44,4.76-3,2.47-3.85,3.17c-.5,1-1.21,2.3-2.11,3.95s-1.77,3.34-2.61,5.05-1.6,3.31-2.24,4.81a9.52,9.52,0,0,0-1,3.13c0,.76.64,1.14,1.94,1.14a8.2,8.2,0,0,0,3-.65,20.53,20.53,0,0,0,3.21-1.67,30,30,0,0,0,3.16-2.32A36.43,36.43,0,0,0,198.52,44a1.89,1.89,0,0,1,1.1-.65c.45,0,.67.28.67.82a3,3,0,0,1-.75,1.63,34.77,34.77,0,0,1-3.17,3,56.17,56.17,0,0,1-4.73,3.58,34.86,34.86,0,0,1-5.4,3,12.91,12.91,0,0,1-5.19,1.26c-2.43,0-3.63-1.19-3.63-3.57a12.73,12.73,0,0,1,.8-4c.53-1.57,1.14-3.13,1.81-4.68s1.35-3,2-4.27,1.15-2.2,1.43-2.69a19.93,19.93,0,0,0-1.64,1.3c-.76.65-1.59,1.39-2.49,2.2s-1.83,1.67-2.79,2.57-1.83,1.69-2.62,2.4a2.53,2.53,0,0,1-1.35.65c-.45,0-.67-.25-.67-.73a2.7,2.7,0,0,1,1-1.8c1-1,2.12-2,3.34-3.13s2.4-2.18,3.58-3.22,2.27-2,3.25-2.85,1.79-1.54,2.41-2q1.6-3.18,3.76-6.8t4.64-7.21q2.49-3.59,5.15-6.92a56.47,56.47,0,0,1,5.32-5.86,31.21,31.21,0,0,1,5.11-4A8.83,8.83,0,0,1,214.06.4,5,5,0,0,1,217.52,1.34ZM214,4.55c-.28,0-.88.4-1.81,1.18A41.71,41.71,0,0,0,209,8.83c-1.21,1.27-2.53,2.74-4,4.39s-2.81,3.36-4.14,5.09-2.52,3.46-3.58,5.17a32.62,32.62,0,0,0-2.45,4.6q5.49-5.13,9.33-9t6.28-6.72A38.71,38.71,0,0,0,214,7.77a5.83,5.83,0,0,0,1.1-2.49C215.07,4.8,214.71,4.55,214,4.55Z"/><path class="cls-6" d="M225,53a6.13,6.13,0,0,0,2.91-1.11,36.41,36.41,0,0,0,3.81-2.68q2-1.59,3.88-3.3l3.33-3a1.82,1.82,0,0,1,1.27-.57c.45,0,.67.21.67.65a3.08,3.08,0,0,1-1.18,1.95c-.67.65-1.66,1.59-2.95,2.81s-2.7,2.44-4.22,3.66a30.45,30.45,0,0,1-4.77,3.18,9.78,9.78,0,0,1-4.6,1.35,4.94,4.94,0,0,1-3.72-1.31,4.61,4.61,0,0,1-1.27-3.34,8.61,8.61,0,0,1,1.23-4.76,33.93,33.93,0,0,1,2.49-3.46c-1.07.92-2.51,2.12-4.31,3.58S213.93,49.55,212,51a53.62,53.62,0,0,1-5.74,3.66,10.44,10.44,0,0,1-4.69,1.55,4.64,4.64,0,0,1-3.71-1.3,4.86,4.86,0,0,1-1.1-3.26,13.49,13.49,0,0,1,1.56-6.11,25.84,25.84,0,0,1,4.22-5.94,41.62,41.62,0,0,1,6.12-5.34A50,50,0,0,1,216,29.88,42.66,42.66,0,0,1,223.94,27a30.51,30.51,0,0,1,7.76-1.06,25.81,25.81,0,0,1,6.59.69,6.71,6.71,0,0,1,3.46,1.83q-3.21,3.25-6.46,6.84t-5.87,6.8a65.75,65.75,0,0,0-4.26,5.78,8.4,8.4,0,0,0-1.65,3.79C223.51,52.54,224,53,225,53Zm-18.45-4.37a1,1,0,0,0,1,.54,5.7,5.7,0,0,0,2.28-.7,34.51,34.51,0,0,0,3.26-1.83c1.2-.76,2.49-1.64,3.84-2.64s2.7-2,4-3.14q3.54-3,7-6.07t5.74-5.09a5.8,5.8,0,0,0-2-.32,23.16,23.16,0,0,0-6.79,1.46,33.79,33.79,0,0,0-9.76,5.78,43.81,43.81,0,0,0-6.83,6.56c-1.36,1.77-2,3.19-2,4.28A2.42,2.42,0,0,0,206.58,48.64Z"/><path class="cls-6" d="M282.36,1.34a3.23,3.23,0,0,1,1,2.48,8.85,8.85,0,0,1-1.56,4.35,43.48,43.48,0,0,1-4,5.46q-2.44,2.89-5.45,5.91c-2,2-4,3.89-6,5.66S262.62,28.55,261,30s-2.95,2.47-3.85,3.17c-.5,1-1.21,2.3-2.11,3.95s-1.77,3.34-2.61,5.05-1.6,3.31-2.24,4.81a9.52,9.52,0,0,0-1,3.13c0,.76.64,1.14,1.94,1.14a8.16,8.16,0,0,0,3-.65,20.53,20.53,0,0,0,3.21-1.67,30,30,0,0,0,3.16-2.32A36.43,36.43,0,0,0,263.36,44a1.89,1.89,0,0,1,1.1-.65c.45,0,.67.28.67.82a3,3,0,0,1-.75,1.63,34.77,34.77,0,0,1-3.17,3,56.17,56.17,0,0,1-4.73,3.58,34.86,34.86,0,0,1-5.4,3,12.91,12.91,0,0,1-5.19,1.26c-2.42,0-3.64-1.19-3.64-3.57a12.78,12.78,0,0,1,.81-4c.53-1.57,1.14-3.13,1.81-4.68s1.35-3,2-4.27,1.15-2.2,1.43-2.69a19.93,19.93,0,0,0-1.64,1.3c-.76.65-1.59,1.39-2.49,2.2s-1.83,1.67-2.79,2.57-1.83,1.69-2.62,2.4a2.53,2.53,0,0,1-1.35.65c-.45,0-.67-.25-.67-.73a2.66,2.66,0,0,1,1-1.8c1-1,2.12-2,3.34-3.13s2.4-2.18,3.58-3.22,2.27-2,3.25-2.85,1.79-1.54,2.41-2q1.6-3.18,3.76-6.8t4.64-7.21q2.49-3.59,5.15-6.92a56.47,56.47,0,0,1,5.32-5.86,31.21,31.21,0,0,1,5.11-4A8.82,8.82,0,0,1,278.89.4,5.06,5.06,0,0,1,282.36,1.34Zm-3.55,3.21c-.28,0-.89.4-1.81,1.18a41.71,41.71,0,0,0-3.21,3.1c-1.21,1.27-2.53,2.74-4,4.39s-2.82,3.36-4.14,5.09-2.52,3.46-3.59,5.17a33.51,33.51,0,0,0-2.44,4.6q5.48-5.13,9.33-9t6.29-6.72a39.53,39.53,0,0,0,3.54-4.56,6,6,0,0,0,1.1-2.49C279.91,4.8,279.54,4.55,278.81,4.55Z"/><path class="cls-6" d="M288.39,24c.88.47,1.31,1,1.31,1.59a1.52,1.52,0,0,1-.08.45,1.87,1.87,0,0,1-.51.69q-1.68,1.79-4.43,5.09t-5.45,6.8a75.73,75.73,0,0,0-4.64,6.68c-1.3,2.11-1.94,3.69-1.94,4.72,0,.87.45,1.3,1.35,1.3A6.76,6.76,0,0,0,277.21,50a40.66,40.66,0,0,0,4.47-3.3c1.63-1.35,3.32-2.89,5.07-4.6s3.43-3.43,5.06-5.17,3.13-3.42,4.48-5.05,2.42-3,3.21-4.15A1.7,1.7,0,0,1,301,27a4.42,4.42,0,0,1,1.48.28A6.58,6.58,0,0,1,304,28a5.56,5.56,0,0,1,1.1.94,1.46,1.46,0,0,1,.42.9,1.52,1.52,0,0,1-.34.73l-4.94,6.07q-2.49,3-4.51,5.7a55.61,55.61,0,0,0-3.3,4.72,7,7,0,0,0-1.26,3,1.11,1.11,0,0,0,.21.69.92.92,0,0,0,.8.29,5.31,5.31,0,0,0,2.2-.77,29.78,29.78,0,0,0,3-1.92Q299,47.3,300.47,46a16,16,0,0,0,2.23-2.24,1.68,1.68,0,0,1,1.19-.65c.45,0,.67.24.67.73a2.33,2.33,0,0,1-.76,1.55A30.13,30.13,0,0,1,301,48.11,40.15,40.15,0,0,1,297,51.25a32.62,32.62,0,0,1-4.52,2.61,10,10,0,0,1-4.26,1.1,4.1,4.1,0,0,1-3-.9,3.51,3.51,0,0,1-.89-2.6,7.91,7.91,0,0,1,.59-2.94c.39-1,.82-1.9,1.27-2.76-.51.54-1.41,1.35-2.7,2.44A53.44,53.44,0,0,1,279,51.5,40.35,40.35,0,0,1,274,54.39a10.94,10.94,0,0,1-4.59,1.22q-4.14,0-4.14-3.67a9,9,0,0,1,.89-3.7,34.63,34.63,0,0,1,2.06-4q1.18-1.95,2.37-3.54t1.77-2.4c-1.41,1.35-2.57,2.45-3.5,3.29s-1.82,1.67-2.66,2.49l-1.69,1.63a1.72,1.72,0,0,1-1.18.57.66.66,0,0,1-.76-.74,2.5,2.5,0,0,1,.93-1.71q1.43-1.38,4.26-4t6-5.49c2.11-1.95,4.17-3.9,6.17-5.82s3.56-3.55,4.68-4.85a1.55,1.55,0,0,1,1.35-.49A5.34,5.34,0,0,1,288.39,24Z"/><path class="cls-6" d="M335.46,39.48A20.91,20.91,0,0,1,332,44.9a21.71,21.71,0,0,1-4.82,4A21.18,21.18,0,0,1,322,51.29a4.15,4.15,0,0,1,2.45,3.59c.68-.38,1.62-.94,2.83-1.67s2.53-1.59,4-2.57,2.9-2,4.39-3.21a44.33,44.33,0,0,0,4.1-3.63,1.38,1.38,0,0,1,1-.57c.45,0,.67.3.67.9a2.11,2.11,0,0,1-.76,1.54,38.58,38.58,0,0,1-3.5,3.14Q335,50.48,332.8,52t-4.34,2.86c-1.41.86-2.59,1.57-3.55,2.11a25.26,25.26,0,0,1-1.23,7.41,25.79,25.79,0,0,1-3.63,7.41,21,21,0,0,1-6,5.7,15,15,0,0,1-8.23,2.28,8.22,8.22,0,0,1-3.72-.77A3.11,3.11,0,0,1,300.59,76a7,7,0,0,1,1.06-3.5,20,20,0,0,1,2.7-3.54,31,31,0,0,1,3.72-3.34q2.06-1.59,4.13-3t3.84-2.4c1.19-.68,2.17-1.24,3-1.67a5,5,0,0,0-1.35-3,5.41,5.41,0,0,0-3.55-1.26,1.92,1.92,0,0,1-1.43-.74,2.3,2.3,0,0,1-.51-1.46,2.62,2.62,0,0,1,.38-1.31,1.66,1.66,0,0,1,1.14-.81,16.58,16.58,0,0,0,4.18-2,34.39,34.39,0,0,0,5-3.7,26.83,26.83,0,0,0,4.22-4.68,8.49,8.49,0,0,0,1.78-4.89,6.66,6.66,0,0,0-.89-3.34,3,3,0,0,0-2.83-1.54,6.51,6.51,0,0,0-2.66.81,31.67,31.67,0,0,0-3.59,2.12q-1.94,1.3-4.05,3c-1.41,1.11-2.78,2.25-4.13,3.42s-2.65,2.32-3.89,3.46-2.31,2.15-3.21,3a1.37,1.37,0,0,1-1,.41c-.56,0-.84-.24-.84-.73a2.62,2.62,0,0,1,1-1.71q1.77-1.71,5-4.73t7-6a57.83,57.83,0,0,1,7.72-5.21,14.73,14.73,0,0,1,7.05-2.2,7.67,7.67,0,0,1,3.3.65,6.84,6.84,0,0,1,2.23,1.71,7,7,0,0,1,1.31,2.4,9.14,9.14,0,0,1,.42,2.73A15.68,15.68,0,0,1,335.46,39.48ZM314.57,64a54.18,54.18,0,0,0-4.77,3.63,38.08,38.08,0,0,0-3.72,3.58A4.85,4.85,0,0,0,304.56,74a2,2,0,0,0,.42,1.38,2.06,2.06,0,0,0,1.61.49,6.36,6.36,0,0,0,4.09-1.75A25.22,25.22,0,0,0,314.52,70a31.63,31.63,0,0,0,3-4.89A17.88,17.88,0,0,0,319.17,61C317.82,61.8,316.28,62.79,314.57,64Z"/><path class="cls-7" d="M84.3,72.88h1a2.39,2.39,0,0,0,.58,1.61,1.81,1.81,0,0,0,1.42.6,2,2,0,0,0,1.51-.6,2.25,2.25,0,0,0,.56-1.61c0-1-.76-1.74-2.29-2.24l-.27-.09a3.79,3.79,0,0,1-1.73-1,2.49,2.49,0,0,1-.53-1.65,2.88,2.88,0,0,1,.82-2.13,2.78,2.78,0,0,1,2.1-.83,2.58,2.58,0,0,1,2,.75,3.37,3.37,0,0,1,.8,2.13h-1a2.32,2.32,0,0,0-.54-1.38,1.57,1.57,0,0,0-1.2-.48,1.76,1.76,0,0,0-1.32.53,1.82,1.82,0,0,0-.52,1.34,1.55,1.55,0,0,0,.16.74,1.53,1.53,0,0,0,.49.57,5.16,5.16,0,0,0,1.31.57c.38.12.66.21.86.29A3.24,3.24,0,0,1,90,71a2.81,2.81,0,0,1,.47,1.68,3.68,3.68,0,0,1-.87,2.56,2.9,2.9,0,0,1-2.29,1,2.78,2.78,0,0,1-2.17-.92A3.52,3.52,0,0,1,84.3,72.88Z"/><path class="cls-7" d="M100.39,72.21H93a3.22,3.22,0,0,0,1,2.18,3.06,3.06,0,0,0,2.19.83,3,3,0,0,0,1.67-.49,3.16,3.16,0,0,0,1.14-1.33h1.2a4.64,4.64,0,0,1-1.6,2.09,4,4,0,0,1-2.38.74A4.11,4.11,0,0,1,93.1,75a4.31,4.31,0,0,1-1.24-3.08,4.24,4.24,0,0,1,1.22-3.11,4.19,4.19,0,0,1,3.11-1.23,3.93,3.93,0,0,1,3,1.28,4.72,4.72,0,0,1,1.17,3.32Zm-1.17-.92a3.62,3.62,0,0,0-1.1-2.07A3.08,3.08,0,0,0,96,68.53a2.92,2.92,0,0,0-2,.74,3.3,3.3,0,0,0-1,2Z"/><path class="cls-7" d="M103.12,76h-1.07V67.75h1v1a2.59,2.59,0,0,1,.85-.81,2.29,2.29,0,0,1,1.07-.27v1.15a2,2,0,0,0-1.43.6,2.54,2.54,0,0,0-.43,1.64Z"/><path class="cls-7" d="M110.15,76h-1L106,67.75h1.12l2.63,6.65,2.66-6.65h1.15Z"/><path class="cls-7" d="M115.78,66.79h-1.06v-1.7h1.06ZM114.72,76V67.75h1.06V76Z"/><path class="cls-7" d="M124.54,70.29A3.39,3.39,0,0,0,123.35,69a3.1,3.1,0,0,0-1.67-.43,2.83,2.83,0,0,0-2.16,1,3.42,3.42,0,0,0-.89,2.39,3.34,3.34,0,0,0,.9,2.38,2.87,2.87,0,0,0,2.2,1,3,3,0,0,0,1.69-.48,3,3,0,0,0,1.12-1.32h1.17a4.25,4.25,0,0,1-1.51,2.07,4.27,4.27,0,0,1-5.44-.53,4.43,4.43,0,0,1,0-6.16,4.09,4.09,0,0,1,3-1.27,4,4,0,0,1,2.36.72,4.28,4.28,0,0,1,1.54,2Z"/><path class="cls-7" d="M128.77,66.79h-1.05v-1.7h1.05ZM127.72,76V67.75h1.05V76Z"/><path class="cls-7" d="M130.49,71.88a4.3,4.3,0,0,1,1.25-3.1,3.94,3.94,0,0,1,2.94-1.29A4.32,4.32,0,0,1,139,71.78a4.4,4.4,0,0,1-1.23,3.14,4,4,0,0,1-3,1.31,4.08,4.08,0,0,1-3-1.28A4.23,4.23,0,0,1,130.49,71.88Zm1.11,0a3.31,3.31,0,0,0,.91,2.38,3.07,3.07,0,0,0,4.48,0,3.63,3.63,0,0,0,0-4.8,3.08,3.08,0,0,0-2.32-.94,2.85,2.85,0,0,0-2.16,1A3.37,3.37,0,0,0,131.6,71.87Z"/><path class="cls-7" d="M140.17,73.4h1.09v0a1.89,1.89,0,0,0,.44,1.28,1.4,1.4,0,0,0,1.1.51,1.44,1.44,0,0,0,1-.39,1.32,1.32,0,0,0,.41-1,1.4,1.4,0,0,0-.32-1,3,3,0,0,0-1.18-.67,4.25,4.25,0,0,1-1.79-1,2.07,2.07,0,0,1-.42-1.36,2.17,2.17,0,0,1,.7-1.64,2.34,2.34,0,0,1,1.69-.68,2.3,2.3,0,0,1,1.68.6,2.34,2.34,0,0,1,.67,1.67h-1.13a1.33,1.33,0,0,0-.37-.9,1.25,1.25,0,0,0-.91-.32,1.18,1.18,0,0,0-.87.34,1.19,1.19,0,0,0-.34.87,1.32,1.32,0,0,0,.14.62,1.36,1.36,0,0,0,.47.45,3.29,3.29,0,0,0,.88.36c.38.11.63.2.76.25a2.22,2.22,0,0,1,1.5,2.27,2.32,2.32,0,0,1-.74,1.77,2.64,2.64,0,0,1-1.88.69,2.41,2.41,0,0,1-1.86-.76A3.07,3.07,0,0,1,140.17,73.4Z"/><path class="cls-7" d="M153.14,76h-1.07V65.09h1.07Z"/><path class="cls-7" d="M155.47,67.75h1v.94a3.13,3.13,0,0,1,1.13-.83,3.76,3.76,0,0,1,1.46-.27,3.64,3.64,0,0,1,1.62.34,2.68,2.68,0,0,1,1.12,1,3,3,0,0,1,.41,1,9.59,9.59,0,0,1,.12,1.76V76h-1V71.38a3.28,3.28,0,0,0-.56-2.12A2.21,2.21,0,0,0,159,68.6a2.7,2.7,0,0,0-1.27.29,2.06,2.06,0,0,0-.85.83,2.3,2.3,0,0,0-.28.76,10,10,0,0,0-.08,1.51v4h-1Z"/><path class="cls-7" d="M165.21,76V68.82h-1.57V67.75h1.57V65.09h1.06v2.66h1.56v1.07h-1.56V76Z"/><path class="cls-7" d="M177.22,72.21h-7.44a3.22,3.22,0,0,0,1,2.18,3.05,3.05,0,0,0,2.18.83,2.92,2.92,0,0,0,1.67-.49,3.12,3.12,0,0,0,1.15-1.33H177a4.64,4.64,0,0,1-1.6,2.09,4,4,0,0,1-2.39.74,4.09,4.09,0,0,1-3-1.28,4.27,4.27,0,0,1-1.24-3.08A4.19,4.19,0,0,1,173,67.53a3.93,3.93,0,0,1,3,1.28,4.72,4.72,0,0,1,1.17,3.32Zm-1.17-.92a3.62,3.62,0,0,0-1.1-2.07,3.08,3.08,0,0,0-2.09-.69,2.92,2.92,0,0,0-2,.74,3.3,3.3,0,0,0-1,2Z"/><path class="cls-7" d="M180.3,76.67a2.07,2.07,0,0,0,.87,1.12,2.77,2.77,0,0,0,1.53.4,2.89,2.89,0,0,0,2.26-.94,3.54,3.54,0,0,0,.85-2.5v-.22a4.17,4.17,0,0,1-1.36,1.24,3.58,3.58,0,0,1-1.69.41,4.36,4.36,0,0,1-3.1-7.38,4.35,4.35,0,0,1,4.8-.87,3.71,3.71,0,0,1,1.35,1.17V67.75h1v6.88A4.89,4.89,0,0,1,185.76,78a3.79,3.79,0,0,1-3,1.22,4.15,4.15,0,0,1-2.41-.7,3.13,3.13,0,0,1-1.3-1.85Zm-.73-4.86a3.41,3.41,0,0,0,.92,2.42,2.94,2.94,0,0,0,4.37,0,3.2,3.2,0,0,0,.93-2.29,3.41,3.41,0,0,0-.92-2.41,2.87,2.87,0,0,0-2.17-1,3,3,0,0,0-2.21.94A3.25,3.25,0,0,0,179.57,71.81Z"/><path class="cls-7" d="M190,76h-1.07V67.75h1v1a2.59,2.59,0,0,1,.85-.81,2.26,2.26,0,0,1,1.07-.27v1.15a2,2,0,0,0-1.43.6A2.48,2.48,0,0,0,190,71Z"/><path class="cls-7" d="M200.2,74.69a3.35,3.35,0,0,1-1.34,1.12,4.1,4.1,0,0,1-1.81.4A4,4,0,0,1,194,75a4.18,4.18,0,0,1-1.21-3.06,4.22,4.22,0,0,1,1.23-3.09,4.17,4.17,0,0,1,3.09-1.25,3.9,3.9,0,0,1,1.74.39,3.54,3.54,0,0,1,1.32,1.11V67.75h1V76h-1Zm0-2.87a3.21,3.21,0,0,0-.94-2.29,2.89,2.89,0,0,0-2.15-1,3,3,0,0,0-2.26,1,3.41,3.41,0,0,0-.94,2.43,3.17,3.17,0,0,0,.93,2.32,3,3,0,0,0,2.24,1,2.89,2.89,0,0,0,2.19-1A3.42,3.42,0,0,0,200.2,71.82Z"/><path class="cls-7" d="M203.38,76V65.09h1.06V76Z"/><path class="cls-7" d="M214.69,72.21h-7.44a3.21,3.21,0,0,0,1,2.18,3.09,3.09,0,0,0,2.19.83,2.92,2.92,0,0,0,1.67-.49,3.12,3.12,0,0,0,1.15-1.33h1.2a4.71,4.71,0,0,1-1.6,2.09,4,4,0,0,1-2.39.74,4.09,4.09,0,0,1-3-1.28,4.5,4.5,0,0,1,0-6.19,4.19,4.19,0,0,1,3.11-1.23,4,4,0,0,1,3,1.28,4.72,4.72,0,0,1,1.17,3.32Zm-1.17-.92a3.68,3.68,0,0,0-1.1-2.07,3.1,3.1,0,0,0-2.09-.69,2.9,2.9,0,0,0-2,.74,3.2,3.2,0,0,0-1,2Z"/><path class="cls-7" d="M215.84,73.4h1.08v0a1.85,1.85,0,0,0,.45,1.28,1.37,1.37,0,0,0,1.09.51,1.44,1.44,0,0,0,1-.39,1.29,1.29,0,0,0,.42-1,1.36,1.36,0,0,0-.33-1,3,3,0,0,0-1.18-.67,4.32,4.32,0,0,1-1.79-1,2.07,2.07,0,0,1-.42-1.36,2.17,2.17,0,0,1,.7-1.64,2.36,2.36,0,0,1,1.7-.68,2.29,2.29,0,0,1,1.67.6,2.34,2.34,0,0,1,.67,1.67H219.8a1.29,1.29,0,0,0-.37-.9,1.23,1.23,0,0,0-.91-.32,1.15,1.15,0,0,0-.86.34,1.29,1.29,0,0,0-.2,1.49,1.28,1.28,0,0,0,.47.45,3.35,3.35,0,0,0,.87.36c.38.11.64.2.77.25a2.52,2.52,0,0,1,1.13.88,2.42,2.42,0,0,1,.37,1.39,2.33,2.33,0,0,1-.75,1.77,2.64,2.64,0,0,1-1.88.69,2.41,2.41,0,0,1-1.86-.76A3,3,0,0,1,215.84,73.4Z"/><path class="cls-7" d="M234.51,69.06v-4h1.07V76h-1.07V74.75a3.86,3.86,0,0,1-1.38,1.08,4.16,4.16,0,0,1-1.74.38,4,4,0,0,1-3-1.26,4.49,4.49,0,0,1,0-6.14,4.06,4.06,0,0,1,3-1.24,4.1,4.1,0,0,1,1.77.38A3.6,3.6,0,0,1,234.51,69.06Zm0,2.9a3.42,3.42,0,0,0-.93-2.41,2.91,2.91,0,0,0-2.19-1,3,3,0,0,0-2.23.94,3.21,3.21,0,0,0-.93,2.32,3.4,3.4,0,0,0,.93,2.43,3,3,0,0,0,2.26,1,2.94,2.94,0,0,0,2.16-1A3.24,3.24,0,0,0,234.54,72Z"/><path class="cls-7" d="M245.79,72.21h-7.44a3.22,3.22,0,0,0,1,2.18,3.05,3.05,0,0,0,2.18.83,2.92,2.92,0,0,0,1.67-.49,3.12,3.12,0,0,0,1.15-1.33h1.2a4.64,4.64,0,0,1-1.6,2.09,4,4,0,0,1-2.39.74,4.09,4.09,0,0,1-3-1.28,4.27,4.27,0,0,1-1.24-3.08,4.19,4.19,0,0,1,4.33-4.34,3.93,3.93,0,0,1,3,1.28,4.72,4.72,0,0,1,1.17,3.32Zm-1.17-.92a3.62,3.62,0,0,0-1.1-2.07,3.08,3.08,0,0,0-2.09-.69,2.92,2.92,0,0,0-2,.74,3.3,3.3,0,0,0-1,2Z"/><path class="cls-7" d="M251.84,72.88h1a2.44,2.44,0,0,0,.57,1.61,1.84,1.84,0,0,0,1.43.6,2,2,0,0,0,1.51-.6,2.25,2.25,0,0,0,.56-1.61c0-1-.77-1.74-2.3-2.24l-.27-.09a3.81,3.81,0,0,1-1.72-1,2.49,2.49,0,0,1-.53-1.65,2.91,2.91,0,0,1,.81-2.13,2.79,2.79,0,0,1,2.1-.83,2.58,2.58,0,0,1,2,.75,3.26,3.26,0,0,1,.8,2.13h-1a2.25,2.25,0,0,0-.53-1.38,1.57,1.57,0,0,0-1.21-.48,1.76,1.76,0,0,0-1.32.53,1.85,1.85,0,0,0-.51,1.34,1.68,1.68,0,0,0,.15.74,1.63,1.63,0,0,0,.49.57,5.1,5.1,0,0,0,1.32.57c.38.12.66.21.86.29a3.29,3.29,0,0,1,1.53,1,2.81,2.81,0,0,1,.47,1.68,3.68,3.68,0,0,1-.87,2.56,2.92,2.92,0,0,1-2.3,1,2.76,2.76,0,0,1-2.16-.92A3.52,3.52,0,0,1,251.84,72.88Z"/><path class="cls-7" d="M266.81,74.69a3.35,3.35,0,0,1-1.34,1.12,4.14,4.14,0,0,1-1.82.4,4,4,0,0,1-3-1.24,4.5,4.5,0,0,1,0-6.15,4.16,4.16,0,0,1,3.08-1.25,3.91,3.91,0,0,1,1.75.39,3.54,3.54,0,0,1,1.32,1.11V67.75h1V76h-1Zm0-2.87a3.25,3.25,0,0,0-.94-2.29,2.89,2.89,0,0,0-2.16-1,3,3,0,0,0-2.26,1,3.4,3.4,0,0,0-.93,2.43,3.17,3.17,0,0,0,.93,2.32,3,3,0,0,0,2.23,1,2.89,2.89,0,0,0,2.19-1A3.38,3.38,0,0,0,266.81,71.82Z"/><path class="cls-7" d="M270,76V65.09H271V76Z"/><path class="cls-7" d="M273.18,67.75h1v4.38a4,4,0,0,0,.55,2.39,2.15,2.15,0,0,0,1.8.7,2.65,2.65,0,0,0,1.25-.29,2.19,2.19,0,0,0,.87-.84,2.61,2.61,0,0,0,.27-.76,10.19,10.19,0,0,0,.08-1.52V67.75h1.06V76H279V75.1A3,3,0,0,1,278,76a3.62,3.62,0,0,1-1.43.26,3.13,3.13,0,0,1-2.57-1,5.06,5.06,0,0,1-.79-3.2Z"/><path class="cls-7" d="M289.16,69.06v-4h1.07V76h-1.07V74.75a3.83,3.83,0,0,1-1.37,1.08,4.21,4.21,0,0,1-1.75.38A4,4,0,0,1,283,75a4.5,4.5,0,0,1,0-6.14,4.3,4.3,0,0,1,4.79-.86A3.6,3.6,0,0,1,289.16,69.06Zm0,2.9a3.42,3.42,0,0,0-.93-2.41,2.91,2.91,0,0,0-2.19-1,3,3,0,0,0-2.23.94,3.21,3.21,0,0,0-.93,2.32,3.4,3.4,0,0,0,.93,2.43,3,3,0,0,0,2.26,1,2.94,2.94,0,0,0,2.16-1A3.24,3.24,0,0,0,289.19,72Z"/><path class="cls-8" d="M111.71,107.79a.82.82,0,0,1-.21-.61,3.65,3.65,0,0,1,.25-1,10.56,10.56,0,0,1,.88-1.76,27.44,27.44,0,0,1,1.68-2.45A36.85,36.85,0,0,1,117,98.9l.48-.8c.19-.3.37-.61.55-.92s.36-.6.52-.9.31-.55.42-.77l-.86.76-1.12,1-1.23,1.13-1.19,1.08a.54.54,0,0,1-.27.13.17.17,0,0,1-.19-.19.67.67,0,0,1,.25-.44c.45-.43,1-.93,1.6-1.5l1.9-1.73q1-.89,1.83-1.74a17.61,17.61,0,0,0,1.4-1.55.25.25,0,0,1,.23-.11.72.72,0,0,1,.36.13.39.39,0,0,1,.18.34.34.34,0,0,1,0,.18l-.12.21c-.11.19-.3.49-.57.91l-.82,1.27-1,1.66c.25-.28.57-.6,1-1a11.45,11.45,0,0,1,1.24-1,8.76,8.76,0,0,1,1.34-.84,2.85,2.85,0,0,1,1.29-.35,2.27,2.27,0,0,1,1.76.65,2.33,2.33,0,0,1,.58,1.62,3.22,3.22,0,0,1-.32,1.33,6,6,0,0,1-1,1.43,7.34,7.34,0,0,1-1.56,1.32,7.88,7.88,0,0,1-2.09,1,5.72,5.72,0,0,0,2.46-.68,10.14,10.14,0,0,0,2.4-1.73.48.48,0,0,1,.32-.17c.12,0,.18.06.18.19a.74.74,0,0,1-.27.48,10.54,10.54,0,0,1-1.15,1,8.94,8.94,0,0,1-1.46.87,10,10,0,0,1-1.77.62,8.74,8.74,0,0,1-2.12.25c-.28,0-.56,0-.86,0s-.6-.06-.92-.11a.14.14,0,0,1-.12-.15.51.51,0,0,1,.08-.26,2.1,2.1,0,0,1,.47-.56.43.43,0,0,1,.26-.1h.11a3.08,3.08,0,0,0,1-.18,5.76,5.76,0,0,0,1.12-.5,9.92,9.92,0,0,0,1.15-.76,6.78,6.78,0,0,0,1-.92,4.92,4.92,0,0,0,.72-1,2.28,2.28,0,0,0,.27-1.05.9.9,0,0,0-.28-.69,1.16,1.16,0,0,0-.77-.24,2.78,2.78,0,0,0-1.44.49,10.44,10.44,0,0,0-1.5,1.12A15.51,15.51,0,0,0,119,98.27l-.78.86c-.29.56-.64,1.23-1,2s-.83,1.55-1.28,2.34-.89,1.54-1.34,2.24a13.75,13.75,0,0,1-1.21,1.69,1.7,1.7,0,0,1-.57.46,1.2,1.2,0,0,1-.54.15A.74.74,0,0,1,111.71,107.79Z"/><path class="cls-8" d="M127.89,101.53a2.17,2.17,0,0,1-.61-1.54,3.74,3.74,0,0,1,.14-1,3.57,3.57,0,0,1,.49-1c-.23.2-.49.44-.77.72s-.56.57-.84.83a.34.34,0,0,1-.25.13c-.13,0-.19-.07-.19-.21a.62.62,0,0,1,.25-.46c.49-.48,1-.95,1.5-1.42s1-.92,1.52-1.37c.25-.22.52-.44.8-.65a7.88,7.88,0,0,1,.85-.57,5.6,5.6,0,0,1,.91-.4,2.73,2.73,0,0,1,.94-.16h.25a3.62,3.62,0,0,1,.82-.43,2.47,2.47,0,0,1,.84-.14,1.61,1.61,0,0,1,.76.19,2.22,2.22,0,0,1,.6.5,2.27,2.27,0,0,1,.39.74,2.84,2.84,0,0,1,.13.88A4.5,4.5,0,0,1,136,98a5.36,5.36,0,0,1-1.32,1.81,1.46,1.46,0,0,0,.51.07,1.61,1.61,0,0,0,.85-.24,5.18,5.18,0,0,0,.87-.75.29.29,0,0,1,.21-.1c.13,0,.2.07.2.23a.61.61,0,0,1-.2.38,4.22,4.22,0,0,1-1.16.83,2.91,2.91,0,0,1-1.32.3h-.33l-.21,0a5.22,5.22,0,0,1-1.65,1.17,5.93,5.93,0,0,1-2.61.52A2.61,2.61,0,0,1,127.89,101.53Zm2.45-.24a2.36,2.36,0,0,0,1.09-.31,4.71,4.71,0,0,0,1.18-.88,3.76,3.76,0,0,1-.56-.3,1.8,1.8,0,0,1-.78-1,2.3,2.3,0,0,1-.13-.83,3.85,3.85,0,0,1,.18-1.29,3.53,3.53,0,0,1,.51-.93c-.14.11-.36.29-.67.52a6.91,6.91,0,0,0-.92.89,6.67,6.67,0,0,0-.82,1.22,3.06,3.06,0,0,0-.35,1.46C129.07,100.81,129.49,101.29,130.34,101.29ZM134,94.86a1.37,1.37,0,0,0-.72.21,2.34,2.34,0,0,0-.62.56,3.1,3.1,0,0,0-.43.83,3.35,3.35,0,0,0-.16,1,1.94,1.94,0,0,0,.12.72,1.83,1.83,0,0,0,.3.53,2.42,2.42,0,0,0,.42.37,4.71,4.71,0,0,0,.48.29,9.45,9.45,0,0,0,1.11-1.85,4.13,4.13,0,0,0,.42-1.61C134.91,95.21,134.61,94.86,134,94.86Z"/><path class="cls-8" d="M141.11,94.32a1.27,1.27,0,0,1,.22-.25,2.43,2.43,0,0,1,.25-.2.45.45,0,0,1,.19-.08.16.16,0,0,1,.12,0,6.21,6.21,0,0,0,.57.58l.6.57a4.42,4.42,0,0,1,.48.61,1.25,1.25,0,0,1,.2.67,1.93,1.93,0,0,1-.37,1.1,12.73,12.73,0,0,1-1,1.27c-.21.24-.42.46-.63.67s-.4.41-.57.6a5.12,5.12,0,0,0-.41.53,1,1,0,0,0-.15.46c0,.21.15.32.46.32a2.73,2.73,0,0,0,1.39-.6,12,12,0,0,0,1.83-1.6.49.49,0,0,1,.3-.17c.11,0,.17.07.17.21a.63.63,0,0,1-.24.44,12.06,12.06,0,0,1-1.16,1.1,13.11,13.11,0,0,1-1.22.9,6.79,6.79,0,0,1-1.2.61,3,3,0,0,1-1.09.22,1.47,1.47,0,0,1-.92-.3,1,1,0,0,1-.4-.83A2.09,2.09,0,0,1,139,100a15.45,15.45,0,0,1,1.24-1.41,8.82,8.82,0,0,0,1.15-1.36,1.54,1.54,0,0,0,.3-.78,1.25,1.25,0,0,0-.14-.59l-.26-.48-.94.91-1.12,1.07-1.16,1.1-1,1a.71.71,0,0,1-.35.19c-.12,0-.17-.07-.17-.19a.65.65,0,0,1,.25-.44l1-1c.38-.38.77-.75,1.17-1.13l1.15-1.1c.37-.36.69-.65,1-.89a1.31,1.31,0,0,1-.05-.15,1,1,0,0,1,0-.19A.41.41,0,0,1,141.11,94.32Z"/><path class="cls-8" d="M159.43,96.19a6.44,6.44,0,0,1-1.4,1.27,9.58,9.58,0,0,1-1.94,1,8.17,8.17,0,0,1-2.17.56,5.65,5.65,0,0,0-.44.89,2.37,2.37,0,0,0-.16.81c0,.42.3.63.92.63a3.4,3.4,0,0,0,1.21-.25,8.18,8.18,0,0,0,1.35-.63c.44-.27.87-.56,1.28-.87a7.81,7.81,0,0,0,1.06-1,.44.44,0,0,1,.32-.19c.11,0,.16.07.16.19a.85.85,0,0,1-.29.53,10.91,10.91,0,0,1-1.19,1,12.2,12.2,0,0,1-1.53,1,10.08,10.08,0,0,1-1.69.74,5.13,5.13,0,0,1-1.67.3c-1.31,0-2-.6-2-1.78a3.67,3.67,0,0,1,.3-1.39,7.91,7.91,0,0,1,.79-1.48,9.31,9.31,0,0,1,1.21-1.42,10.06,10.06,0,0,1,1.5-1.21,7.88,7.88,0,0,1,1.67-.83,5.24,5.24,0,0,1,1.76-.32,1.7,1.7,0,0,1,1.11.29,1,1,0,0,1,.34.78A2.17,2.17,0,0,1,159.43,96.19ZM157.59,95a6.31,6.31,0,0,0-1,.7,9.17,9.17,0,0,0-1,1,9.28,9.28,0,0,0-.88,1.08,3.69,3.69,0,0,0,1.35-.29,7.61,7.61,0,0,0,1.33-.7,5.57,5.57,0,0,0,1-.87,1.39,1.39,0,0,0,.4-.8.41.41,0,0,0-.06-.26s-.13-.08-.3-.08A1.87,1.87,0,0,0,157.59,95Z"/><path class="cls-8" d="M169.85,88a.86.86,0,0,1,.25.64,2.34,2.34,0,0,1-.38,1.13,11.29,11.29,0,0,1-1,1.4c-.4.5-.86,1-1.35,1.52s-1,1-1.48,1.46-.94.86-1.35,1.22-.73.64-.95.82-.3.59-.53,1-.44.86-.65,1.3-.39.85-.55,1.23a2.64,2.64,0,0,0-.24.81c0,.2.16.29.48.29a1.77,1.77,0,0,0,.75-.17,5.13,5.13,0,0,0,.8-.42,8.54,8.54,0,0,0,.78-.6c.26-.23.5-.45.71-.67s.2-.17.27-.17.17.07.17.21a.83.83,0,0,1-.19.42,8.66,8.66,0,0,1-.79.76,11.38,11.38,0,0,1-1.17.93,8.93,8.93,0,0,1-1.34.77,3.08,3.08,0,0,1-1.29.33.81.81,0,0,1-.9-.93,3.14,3.14,0,0,1,.2-1c.13-.41.28-.81.45-1.21s.33-.76.5-1.1.29-.57.36-.69c-.09.06-.22.17-.41.33l-.62.57c-.22.21-.46.43-.69.66l-.65.62a.63.63,0,0,1-.34.17c-.11,0-.17-.07-.17-.19a.69.69,0,0,1,.26-.46l.82-.81c.3-.29.6-.56.89-.83s.57-.51.81-.73l.6-.53c.26-.54.58-1.12.93-1.75s.74-1.24,1.15-1.85.84-1.21,1.28-1.78a14.55,14.55,0,0,1,1.32-1.51,8.44,8.44,0,0,1,1.27-1,2.13,2.13,0,0,1,1.13-.39A1.21,1.21,0,0,1,169.85,88Zm-.88.83c-.07,0-.22.1-.45.31a9.73,9.73,0,0,0-.79.79c-.31.33-.63.71-1,1.13s-.7.87-1,1.31-.62.9-.89,1.34a9,9,0,0,0-.61,1.18c.91-.88,1.68-1.66,2.32-2.33s1.16-1.24,1.56-1.73a9.27,9.27,0,0,0,.88-1.17,1.6,1.6,0,0,0,.28-.64C169.25,88.91,169.15,88.84,169,88.84Z"/><path class="cls-8" d="M185,94.9a2.79,2.79,0,0,0-1.18-.23c-.32.22-.65.44-1,.65a2,2,0,0,1-1.05.31.83.83,0,0,1-.55-.13.48.48,0,0,1-.15-.37.61.61,0,0,1,.17-.43,1.12,1.12,0,0,1,.45-.28,3.52,3.52,0,0,1,.64-.16,6.06,6.06,0,0,1,.76-.05c.51-.27,1-.55,1.58-.86a16.28,16.28,0,0,0,1.47-.94,6.23,6.23,0,0,0,1.08-1,1.65,1.65,0,0,0,.41-1,.8.8,0,0,0-.4-.69,2.13,2.13,0,0,0-1.17-.27,6,6,0,0,0-1,.09,7.81,7.81,0,0,0-1,.29l-1,1.3-1.5,2c-.56.74-1.15,1.52-1.77,2.36l-1.78,2.4c-.57.76-1.08,1.47-1.54,2.1s-.81,1.14-1,1.5a1.25,1.25,0,0,1-.5.45,1.4,1.4,0,0,1-.57.14,1.06,1.06,0,0,1-.57-.16.5.5,0,0,1-.24-.45.54.54,0,0,1,0-.2,2.56,2.56,0,0,1,.17-.35,11.7,11.7,0,0,1,.79-1.18c.41-.55.88-1.18,1.43-1.89s1.13-1.45,1.75-2.23,1.22-1.52,1.8-2.23l1.56-1.9c.46-.56.8-1,1-1.21l-.79.35-.87.4-.86.44a6.61,6.61,0,0,0-.73.48.63.63,0,0,1-.36.17c-.14,0-.21-.08-.21-.25a1,1,0,0,1,.18-.48,1.87,1.87,0,0,1,.54-.55,15.58,15.58,0,0,1,1.91-1.12,13.08,13.08,0,0,1,1.95-.76,12.81,12.81,0,0,1,1.89-.44,10.65,10.65,0,0,1,1.73-.15,5,5,0,0,1,2.27.44,1.34,1.34,0,0,1,.85,1.22,1.76,1.76,0,0,1-.52,1.17,7.67,7.67,0,0,1-1.29,1.13,14.79,14.79,0,0,1-1.65,1c-.58.3-1.11.57-1.59.79.11,0,.23,0,.35-.06l.47,0a2.24,2.24,0,0,1,1.43.45,1.44,1.44,0,0,1,.58,1.21,4.14,4.14,0,0,1-.79,2.31,8.79,8.79,0,0,1-2,2.15,11.79,11.79,0,0,1-2.8,1.58,8.15,8.15,0,0,1-3,.62,2.52,2.52,0,0,1-1.46-.35,1,1,0,0,1-.53-.8,1.25,1.25,0,0,1,.36-.87,3.57,3.57,0,0,1,.9-.69,6.27,6.27,0,0,1,1.18-.51,11.52,11.52,0,0,1,1.19-.3l.25,0c.19,0,.29.07.29.21s-.12.28-.35.35a6.61,6.61,0,0,0-1.57.6c-.32.2-.49.38-.49.54s0,.15.16.25a.88.88,0,0,0,.6.14,4.28,4.28,0,0,0,1.17-.19,8.31,8.31,0,0,0,1.37-.57,12.06,12.06,0,0,0,1.39-.85,7.3,7.3,0,0,0,1.21-1.06,5.07,5.07,0,0,0,.86-1.21,2.81,2.81,0,0,0,.33-1.29A.83.83,0,0,0,185,94.9Z"/><path class="cls-8" d="M193.18,94.18c.13.09.19.18.19.26a.89.89,0,0,1-.11.38c-.23.42-.54.9-.91,1.44s-.73,1.09-1.08,1.64a16.22,16.22,0,0,0-.9,1.56,2.84,2.84,0,0,0-.37,1.22,1,1,0,0,0,.09.44.32.32,0,0,0,.32.21,1.46,1.46,0,0,0,.7-.23,5.71,5.71,0,0,0,.87-.58c.3-.24.6-.5.91-.79s.58-.55.82-.81a.38.38,0,0,1,.29-.16c.11,0,.17.06.17.19a.56.56,0,0,1-.06.23.85.85,0,0,1-.17.25l-.91.89a14.33,14.33,0,0,1-1.16,1,7.75,7.75,0,0,1-1.27.84,2.57,2.57,0,0,1-1.19.35,1,1,0,0,1-.87-.47,2.29,2.29,0,0,1-.31-1.23,3.47,3.47,0,0,1,.18-1.06,8.88,8.88,0,0,1,.47-1.14,11.77,11.77,0,0,1,.68-1.17c.25-.39.5-.77.77-1.13-.25.19-.69.55-1.31,1.06s-1.37,1.2-2.25,2a.39.39,0,0,1-.25.12.24.24,0,0,1-.16,0,.18.18,0,0,1-.07-.16.59.59,0,0,1,.2-.37c.47-.46,1-.93,1.49-1.41s1.06-.93,1.59-1.37,1-.84,1.52-1.2a15.18,15.18,0,0,1,1.27-.84.89.89,0,0,1,.38-.11A.72.72,0,0,1,193.18,94.18Zm2.26-2.62a1.29,1.29,0,0,1-.9.32.53.53,0,0,1-.6-.61,1,1,0,0,1,.11-.43,2.14,2.14,0,0,1,.3-.44,2.72,2.72,0,0,1,.42-.34.91.91,0,0,1,.49-.15.46.46,0,0,1,.39.2.87.87,0,0,1,.15.54A1.17,1.17,0,0,1,195.44,91.56Z"/><path class="cls-8" d="M201.64,96.19a6.22,6.22,0,0,1-1.4,1.27,9.77,9.77,0,0,1-1.93,1,8.27,8.27,0,0,1-2.17.56,4.33,4.33,0,0,0-.44.89,2.18,2.18,0,0,0-.17.81c0,.42.31.63.92.63a3.49,3.49,0,0,0,1.22-.25,8.48,8.48,0,0,0,1.34-.63q.66-.41,1.29-.87a9.23,9.23,0,0,0,1.06-1,.41.41,0,0,1,.31-.19c.11,0,.17.07.17.19a.88.88,0,0,1-.3.53,10.91,10.91,0,0,1-1.19,1,12.2,12.2,0,0,1-1.53,1,10.08,10.08,0,0,1-1.69.74,5.08,5.08,0,0,1-1.66.3c-1.32,0-2-.6-2-1.78a3.65,3.65,0,0,1,.29-1.39,7.91,7.91,0,0,1,.79-1.48,9.31,9.31,0,0,1,1.21-1.42,10.06,10.06,0,0,1,1.5-1.21,7.72,7.72,0,0,1,1.68-.83,5.16,5.16,0,0,1,1.76-.32,1.74,1.74,0,0,1,1.11.29,1,1,0,0,1,.33.78A2.17,2.17,0,0,1,201.64,96.19ZM199.8,95a6.81,6.81,0,0,0-1,.7,10.12,10.12,0,0,0-1,1,10.44,10.44,0,0,0-.88,1.08,3.69,3.69,0,0,0,1.35-.29,7.61,7.61,0,0,0,1.33-.7,5.57,5.57,0,0,0,1-.87,1.39,1.39,0,0,0,.4-.8.51.51,0,0,0,0-.26s-.14-.08-.31-.08A1.9,1.9,0,0,0,199.8,95Z"/><path class="cls-8" d="M208.88,94.87a8.69,8.69,0,0,1-.43.87c-.18.31-.37.62-.59,1s-.43.64-.64.93l-.57.8c-.18.24-.31.41-.39.53.21-.21.48-.47.82-.78s.7-.64,1.1-1,.81-.69,1.24-1,.87-.67,1.29-1a10.23,10.23,0,0,1,1.21-.68,2.51,2.51,0,0,1,1-.26,1.1,1.1,0,0,1,.53.11.42.42,0,0,1,.19.39,2.06,2.06,0,0,1-.29.9,9.41,9.41,0,0,1-.7,1.16c-.28.4-.58.82-.9,1.24l-.9,1.21c-.28.38-.51.71-.7,1a1.4,1.4,0,0,0-.29.63c0,.12.1.17.3.17a1.91,1.91,0,0,0,.77-.23,8.67,8.67,0,0,0,1.07-.57c.38-.24.75-.48,1.11-.74a5.78,5.78,0,0,0,.86-.72.36.36,0,0,1,.25-.13.19.19,0,0,1,.21.21.5.5,0,0,1-.16.36q-.26.26-.87.78a17.05,17.05,0,0,1-1.4,1.08,10.53,10.53,0,0,1-1.61,1,3.58,3.58,0,0,1-1.53.41,1.67,1.67,0,0,1-.85-.21.69.69,0,0,1-.37-.63,2,2,0,0,1,.25-.83,9,9,0,0,1,.64-1c.26-.37.54-.75.84-1.13l.86-1.09.71-.89a1.92,1.92,0,0,0,.37-.57.44.44,0,0,0,0-.1s0-.06-.08-.06a.29.29,0,0,0-.16,0l-.18.08a12.67,12.67,0,0,0-1.52,1.13c-.59.51-1.2,1.06-1.83,1.66s-1.23,1.22-1.8,1.84-1,1.2-1.43,1.7a.52.52,0,0,1-.46.23,1,1,0,0,1-.66-.25.69.69,0,0,1-.3-.48.71.71,0,0,1,0-.16.16.16,0,0,1,0-.09c.08-.16.24-.4.47-.75l.81-1.17,1-1.38c.33-.49.63-.94.91-1.38s.51-.81.69-1.14a1.88,1.88,0,0,0,.28-.68c0-.07-.05-.11-.13-.11a.82.82,0,0,0-.29.11,12.9,12.9,0,0,0-1.11.73c-.42.31-.87.66-1.36,1s-1,.8-1.47,1.25-1,.9-1.47,1.36a.43.43,0,0,1-.29.15.15.15,0,0,1-.17-.17,1,1,0,0,1,.35-.61c.45-.46,1-1,1.67-1.58s1.34-1.16,2-1.7a17.37,17.37,0,0,1,2-1.35,3.29,3.29,0,0,1,1.5-.55,1.19,1.19,0,0,1,.56.12.43.43,0,0,1,.22.41A1.88,1.88,0,0,1,208.88,94.87Z"/><path class="cls-8" d="M221.78,96.19a6.38,6.38,0,0,1-1.39,1.27,9.85,9.85,0,0,1-1.94,1,8.27,8.27,0,0,1-2.17.56,4.9,4.9,0,0,0-.44.89,2.4,2.4,0,0,0-.17.81c0,.42.31.63.92.63a3.45,3.45,0,0,0,1.22-.25,8.48,8.48,0,0,0,1.34-.63,14.54,14.54,0,0,0,1.29-.87,9.23,9.23,0,0,0,1.06-1,.41.41,0,0,1,.31-.19c.11,0,.17.07.17.19a.91.91,0,0,1-.29.53,11.09,11.09,0,0,1-1.2,1,10.9,10.9,0,0,1-1.53,1,9.73,9.73,0,0,1-1.69.74,5.08,5.08,0,0,1-1.66.3c-1.32,0-2-.6-2-1.78a3.65,3.65,0,0,1,.29-1.39,8,8,0,0,1,.8-1.48,8.7,8.7,0,0,1,1.2-1.42,10.06,10.06,0,0,1,1.5-1.21,7.72,7.72,0,0,1,1.68-.83,5.16,5.16,0,0,1,1.76-.32,1.72,1.72,0,0,1,1.11.29,1,1,0,0,1,.33.78A2.1,2.1,0,0,1,221.78,96.19ZM220,95a6.37,6.37,0,0,0-1,.7,10.12,10.12,0,0,0-1,1,10.44,10.44,0,0,0-.88,1.08,3.69,3.69,0,0,0,1.35-.29,7.7,7.7,0,0,0,1.34-.7,5.48,5.48,0,0,0,1-.87,1.33,1.33,0,0,0,.4-.8.51.51,0,0,0-.05-.26s-.14-.08-.31-.08A1.83,1.83,0,0,0,220,95Z"/><path class="cls-8" d="M227.8,93.25a.34.34,0,0,1,.13.29c0,.61,0,1.27-.11,2s-.18,1.36-.31,2-.26,1.23-.41,1.76a9.86,9.86,0,0,1-.41,1.26h.13a1.88,1.88,0,0,0,.74-.19,6.35,6.35,0,0,0,.81-.44,5.93,5.93,0,0,0,.71-.52l.49-.42a.43.43,0,0,1,.29-.19c.11,0,.17.06.17.19a.71.71,0,0,1-.21.46c-.09.09-.24.24-.47.44a9,9,0,0,1-.79.58,6,6,0,0,1-.93.52,2.47,2.47,0,0,1-1,.22l-.25,0a4,4,0,0,0-.19.38,3.16,3.16,0,0,1-.42.7,3.82,3.82,0,0,1-.62.65,1.32,1.32,0,0,1-.8.28,1.78,1.78,0,0,1-1-.3,2.78,2.78,0,0,1-.77-.72,3.05,3.05,0,0,1-.5-.92,2.6,2.6,0,0,1-.18-.87.35.35,0,0,1,.4-.4,6.93,6.93,0,0,1,1.19.12,13.59,13.59,0,0,1,1.4.3,9.94,9.94,0,0,0,.39-1.17c.13-.48.25-1,.36-1.46s.19-1,.25-1.4a8.11,8.11,0,0,0,.09-1,.5.5,0,0,0,0-.19c-.53.53-1.2,1.16-2,1.9s-1.67,1.54-2.61,2.42a.48.48,0,0,1-.33.14c-.12,0-.17,0-.17-.16a.73.73,0,0,1,.27-.46l1.45-1.37c.56-.51,1.11-1,1.66-1.55s1.07-1,1.54-1.46a12.12,12.12,0,0,0,1.07-1.14,1.28,1.28,0,0,1,.29-.24.74.74,0,0,1,.28,0A.65.65,0,0,1,227.8,93.25Zm-4.8,8a2.32,2.32,0,0,0,.22.41,1.6,1.6,0,0,0,.28.35.46.46,0,0,0,.28.14.35.35,0,0,0,.27-.13,1.4,1.4,0,0,0,.24-.33,2.52,2.52,0,0,0,.21-.4c.07-.14.12-.26.16-.35l-.39-.09-.44-.08a3,3,0,0,0-.42-.06,1.85,1.85,0,0,0-.3,0c-.14,0-.21.07-.21.23A.79.79,0,0,0,223,101.27Z"/><path class="cls-8" d="M234.17,93.3l-1.27.24h-.15c-.14,0-.21-.06-.21-.17a.71.71,0,0,1,.26-.45,1.58,1.58,0,0,1,.62-.37c.38-.11.82-.22,1.31-.33s1-.2,1.48-.27l.36-.49.46-.62c.17-.21.34-.44.51-.68l.52-.67a1.36,1.36,0,0,1,.61-.32,2.94,2.94,0,0,1,.83-.14c.31,0,.46.07.46.21a.26.26,0,0,1,0,.11.64.64,0,0,1-.1.16L239,90.67l-.82,1,.66-.11,1-.14,1-.11a7.31,7.31,0,0,1,.82-.06c.11,0,.17.1.17.3a1,1,0,0,1-.07.32,1.05,1.05,0,0,1-.19.34,1.18,1.18,0,0,1-.31.27,1,1,0,0,1-.44.14c-.64,0-1.26.06-1.83.1s-1.12.1-1.61.17l-.91,1.27-1.17,1.62c-.42.57-.84,1.16-1.26,1.76s-.81,1.17-1.14,1.69a15.43,15.43,0,0,0-.82,1.4,2.44,2.44,0,0,0-.32.89.2.2,0,0,0,.09.2.31.31,0,0,0,.19.06,2.29,2.29,0,0,0,1.07-.35,11.91,11.91,0,0,0,1.2-.8,11.23,11.23,0,0,0,1.09-.92l.75-.72a.4.4,0,0,1,.29-.15c.12,0,.19.06.19.17a.49.49,0,0,1-.06.2.9.9,0,0,1-.22.28c-.19.2-.48.47-.87.83a12.41,12.41,0,0,1-2.87,2,3.35,3.35,0,0,1-1.52.4,1.28,1.28,0,0,1-.94-.33,1.09,1.09,0,0,1-.33-.82,2.74,2.74,0,0,1,.39-1.2c.27-.49.57-1,.92-1.49s.67-1,1-1.4l.68-.9-.69.69-.83.81q-.42.4-.84.78l-.7.63a.31.31,0,0,1-.21.08.17.17,0,0,1-.19-.18.6.6,0,0,1,.23-.42l1.25-1.19L232,96.63l1.15-1,1-.87,1.32-1.65Z"/><path class="cls-8" d="M242.67,101.31a1.47,1.47,0,0,0,.72-.28,9.69,9.69,0,0,0,.94-.69c.33-.27.65-.56,1-.85s.59-.55.82-.78a.49.49,0,0,1,.32-.14.15.15,0,0,1,.17.17.8.8,0,0,1-.3.5c-.16.17-.41.41-.73.72s-.67.63-1.05,1a8.25,8.25,0,0,1-1.18.81,2.43,2.43,0,0,1-1.14.35,1.12,1.12,0,0,1-1.24-1.2,2.3,2.3,0,0,1,.3-1.22,8.13,8.13,0,0,1,.62-.89l-1.07.92c-.45.38-.91.75-1.39,1.11a12.51,12.51,0,0,1-1.43.94,2.46,2.46,0,0,1-1.16.4,1.13,1.13,0,0,1-.92-.33,1.33,1.33,0,0,1-.28-.84,3.53,3.53,0,0,1,.39-1.57,6.33,6.33,0,0,1,1.05-1.53,10.68,10.68,0,0,1,1.52-1.38,12.52,12.52,0,0,1,1.82-1.12,10.76,10.76,0,0,1,2-.75,7.5,7.5,0,0,1,1.93-.28,6.15,6.15,0,0,1,1.64.18,1.72,1.72,0,0,1,.86.47c-.54.56-1.07,1.15-1.61,1.76s-1,1.2-1.45,1.75A16.07,16.07,0,0,0,242.7,100a2.14,2.14,0,0,0-.41,1C242.29,101.19,242.41,101.31,242.67,101.31Zm-4.58-1.12a.26.26,0,0,0,.24.14,1.31,1.31,0,0,0,.56-.18c.24-.12.51-.28.81-.47s.62-.42,1-.68.67-.53,1-.81l1.74-1.56,1.42-1.31a1.25,1.25,0,0,0-.5-.08,5.57,5.57,0,0,0-1.69.37,8.3,8.3,0,0,0-2.42,1.49,10.57,10.57,0,0,0-1.69,1.69,2,2,0,0,0-.51,1.1A.61.61,0,0,0,238.09,100.19Z"/><path class="cls-8" d="M250.14,94.32a1.27,1.27,0,0,1,.22-.25l.25-.2a.45.45,0,0,1,.19-.08.15.15,0,0,1,.12,0,6.21,6.21,0,0,0,.57.58l.6.57a3.77,3.77,0,0,1,.48.61,1.25,1.25,0,0,1,.2.67,1.93,1.93,0,0,1-.37,1.1,12.73,12.73,0,0,1-1,1.27c-.21.24-.42.46-.63.67s-.4.41-.57.6a5.12,5.12,0,0,0-.41.53,1,1,0,0,0-.15.46c0,.21.15.32.46.32a2.73,2.73,0,0,0,1.39-.6,12.53,12.53,0,0,0,1.84-1.6.47.47,0,0,1,.29-.17c.11,0,.17.07.17.21a.66.66,0,0,1-.23.44,13.48,13.48,0,0,1-1.17,1.1,13.11,13.11,0,0,1-1.22.9,6.79,6.79,0,0,1-1.2.61,3,3,0,0,1-1.09.22,1.47,1.47,0,0,1-.92-.3,1,1,0,0,1-.4-.83,2.09,2.09,0,0,1,.48-1.23,15.45,15.45,0,0,1,1.24-1.41,8.82,8.82,0,0,0,1.15-1.36,1.54,1.54,0,0,0,.3-.78,1.25,1.25,0,0,0-.14-.59l-.26-.48-.93.91-1.13,1.07-1.16,1.1-1,1a.71.71,0,0,1-.35.19c-.11,0-.17-.07-.17-.19a.65.65,0,0,1,.25-.44l1-1c.38-.38.77-.75,1.17-1.13l1.15-1.1c.37-.36.69-.65,1-.89a1.31,1.31,0,0,1-.05-.15,1,1,0,0,1,0-.19A.5.5,0,0,1,250.14,94.32Z"/><path class="cls-8" d="M260.8,101.79a1.81,1.81,0,0,1-.38-1.21,4.43,4.43,0,0,1,.66-2.18,8.66,8.66,0,0,1,1.74-2.13,9.8,9.8,0,0,1,2.48-1.61,6.93,6.93,0,0,1,2.92-.64,4.56,4.56,0,0,1,.75.06q.25-.42.72-1.11c.32-.46.67-1,1.06-1.5s.8-1.08,1.23-1.63.84-1.06,1.24-1.52a1.87,1.87,0,0,1,.61-.48,1.4,1.4,0,0,1,.61-.15.73.73,0,0,1,.48.15.47.47,0,0,1,.19.42,1.48,1.48,0,0,1,0,.26,1.15,1.15,0,0,1-.09.28,10,10,0,0,1-.85,1.39c-.37.53-.78,1.07-1.23,1.64s-.91,1.13-1.4,1.71-1,1.11-1.42,1.61-.87,1-1.25,1.36-.67.72-.88.95-.32.51-.47.78-.28.54-.4.79a7.4,7.4,0,0,0-.28.71,2,2,0,0,0-.1.57.54.54,0,0,0,.07.29.3.3,0,0,0,.28.13,1.24,1.24,0,0,0,.56-.19,7,7,0,0,0,.68-.47c.24-.19.48-.41.73-.64l.72-.67a.32.32,0,0,1,.23-.13q.21,0,.21.27a.43.43,0,0,1-.13.28l-.93.87c-.35.31-.69.6-1,.87s-.68.48-1,.67a1.56,1.56,0,0,1-.75.27l-.17,0a1.25,1.25,0,0,1-.27-.15.86.86,0,0,1-.36-.71,2.27,2.27,0,0,1,.06-.5,4.05,4.05,0,0,1,.15-.57,6.84,6.84,0,0,1-.8.83,10.43,10.43,0,0,1-1,.75,5.7,5.7,0,0,1-1.06.56,2.71,2.71,0,0,1-1,.21A1.36,1.36,0,0,1,260.8,101.79Zm1.9-.62a1.64,1.64,0,0,0,.85-.35,9.18,9.18,0,0,0,1.05-.84c.36-.33.7-.67,1-1l.84-1,.39-.71.41-.68c.15-.23.31-.48.48-.76l.62-.93a3.88,3.88,0,0,0-1.54.33,6.48,6.48,0,0,0-1.44.83,8.67,8.67,0,0,0-1.26,1.16,10.08,10.08,0,0,0-1,1.27,7.15,7.15,0,0,0-.66,1.18,2.41,2.41,0,0,0-.24.91C262.24,101,262.4,101.17,262.7,101.17Z"/><path class="cls-8" d="M277.45,96.19a6.22,6.22,0,0,1-1.4,1.27,9.77,9.77,0,0,1-1.93,1A8.27,8.27,0,0,1,272,99a4.33,4.33,0,0,0-.44.89,2.18,2.18,0,0,0-.17.81c0,.42.31.63.92.63a3.49,3.49,0,0,0,1.22-.25,8.48,8.48,0,0,0,1.34-.63q.66-.41,1.29-.87a9.23,9.23,0,0,0,1.06-1,.41.41,0,0,1,.31-.19c.11,0,.17.07.17.19a.88.88,0,0,1-.3.53,10.91,10.91,0,0,1-1.19,1,12.2,12.2,0,0,1-1.53,1,10.08,10.08,0,0,1-1.69.74,5.08,5.08,0,0,1-1.66.3c-1.32,0-2-.6-2-1.78a3.65,3.65,0,0,1,.29-1.39,7.43,7.43,0,0,1,.8-1.48,8.7,8.7,0,0,1,1.2-1.42A10.06,10.06,0,0,1,273.1,95a7.72,7.72,0,0,1,1.68-.83,5.16,5.16,0,0,1,1.76-.32,1.74,1.74,0,0,1,1.11.29,1,1,0,0,1,.33.78A2.17,2.17,0,0,1,277.45,96.19ZM275.61,95a6.81,6.81,0,0,0-1,.7,10.12,10.12,0,0,0-1,1,10.44,10.44,0,0,0-.88,1.08,3.69,3.69,0,0,0,1.35-.29,7.61,7.61,0,0,0,1.33-.7,5.57,5.57,0,0,0,1-.87,1.39,1.39,0,0,0,.4-.8.51.51,0,0,0-.05-.26s-.14-.08-.31-.08A1.9,1.9,0,0,0,275.61,95Z"/><path class="cls-8" d="M295.16,88.63a.41.41,0,0,1,.22.38,1,1,0,0,1-.36.65,16.73,16.73,0,0,0-1.46,1.71c-.51.66-1,1.35-1.49,2.07s-1,1.45-1.4,2.19-.82,1.43-1.15,2.06-.59,1.18-.79,1.65a3.33,3.33,0,0,0-.29,1c0,.15.05.23.15.23s.46-.2.87-.59.91-.91,1.5-1.55l2-2.18c.73-.81,1.5-1.63,2.29-2.47s1.61-1.66,2.43-2.45a28.86,28.86,0,0,1,2.41-2.1.52.52,0,0,0,.23-.42.49.49,0,0,0-.23-.4,2.25,2.25,0,0,1,1.2-.44,1.14,1.14,0,0,1,.74.28.85.85,0,0,1,.23,1.12.91.91,0,0,1-.36.34,19.35,19.35,0,0,0-2.79,2.08c-.95.84-1.9,1.72-2.84,2.66s-1.87,1.88-2.77,2.83-1.75,1.8-2.54,2.56a23,23,0,0,1-2.18,1.84,3,3,0,0,1-1.66.71.73.73,0,0,1-.58-.25,1.06,1.06,0,0,1-.22-.69,4.65,4.65,0,0,1,.28-1.37,18,18,0,0,1,.75-2c.32-.72.7-1.48,1.13-2.29s.91-1.6,1.42-2.4,1-1.56,1.59-2.31a17.24,17.24,0,0,1,1.69-2,1.82,1.82,0,0,1,.7-.49,2.29,2.29,0,0,1,.74-.14A1.16,1.16,0,0,1,295.16,88.63Z"/><path class="cls-8" d="M301.6,94.18c.13.09.19.18.19.26a.86.86,0,0,1-.1.38c-.24.42-.54.9-.91,1.44s-.73,1.09-1.08,1.64a16.22,16.22,0,0,0-.9,1.56,2.74,2.74,0,0,0-.38,1.22,1,1,0,0,0,.09.44.34.34,0,0,0,.33.21,1.46,1.46,0,0,0,.69-.23,5.71,5.71,0,0,0,.87-.58c.3-.24.6-.5.91-.79s.58-.55.82-.81a.39.39,0,0,1,.29-.16c.11,0,.17.06.17.19a.74.74,0,0,1,0,.23,1.19,1.19,0,0,1-.18.25l-.9.89a14.49,14.49,0,0,1-1.17,1,8.12,8.12,0,0,1-1.26.84,2.64,2.64,0,0,1-1.2.35,1,1,0,0,1-.87-.47,2.29,2.29,0,0,1-.3-1.23,3.47,3.47,0,0,1,.18-1.06,6.71,6.71,0,0,1,.47-1.14,11.64,11.64,0,0,1,.67-1.17c.25-.39.51-.77.77-1.13-.25.19-.68.55-1.31,1.06s-1.37,1.2-2.25,2a.37.37,0,0,1-.25.12.24.24,0,0,1-.16,0,.18.18,0,0,1-.07-.16.57.57,0,0,1,.21-.37c.46-.46.95-.93,1.49-1.41s1-.93,1.58-1.37,1-.84,1.52-1.2a15.15,15.15,0,0,1,1.28-.84.85.85,0,0,1,.37-.11A.72.72,0,0,1,301.6,94.18Zm2.27-2.62a1.32,1.32,0,0,1-.9.32.54.54,0,0,1-.61-.61,1.13,1.13,0,0,1,.11-.43,1.85,1.85,0,0,1,.31-.44,2,2,0,0,1,.42-.34.85.85,0,0,1,.48-.15.48.48,0,0,1,.4.2.94.94,0,0,1,.14.54A1.16,1.16,0,0,1,303.87,91.56Z"/><path class="cls-8" d="M310.91,99.26a1.29,1.29,0,0,0,.82-.34.38.38,0,0,1,.23-.08.19.19,0,0,1,.21.21c0,.13-.09.26-.27.4a1.71,1.71,0,0,1-1,.35,1.14,1.14,0,0,1-.77-.29,1,1,0,0,1-.34-.77v-.13c-.2.25-.49.58-.87,1s-.8.81-1.24,1.21a11.46,11.46,0,0,1-1.3,1,2.1,2.1,0,0,1-1.06.43c-.28,0-.52-.19-.73-.57a3,3,0,0,1-.31-1.45,5.47,5.47,0,0,1,.08-1,6.76,6.76,0,0,1,.21-1,6.88,6.88,0,0,1,.28-.84,6.2,6.2,0,0,1,.31-.63l-1,1-.91.87-.84.8a.5.5,0,0,1-.34.17.19.19,0,0,1-.21-.21A.74.74,0,0,1,302,99c.13-.11.3-.28.53-.49l.75-.73c.28-.26.58-.55.88-.86s.61-.61.89-.91l.82-.87c.26-.28.47-.53.64-.75a1.16,1.16,0,0,1,.41-.34,1,1,0,0,1,.45-.1.71.71,0,0,1,.45.12.34.34,0,0,1,.16.25.32.32,0,0,1,0,.16s-.05.07-.08.12a7.92,7.92,0,0,0-.67,1.1c-.22.44-.42.9-.61,1.37s-.33.94-.45,1.38a4.34,4.34,0,0,0-.17,1.09,1.63,1.63,0,0,0,.09.59.31.31,0,0,0,.28.23,1.25,1.25,0,0,0,.67-.36,8.84,8.84,0,0,0,.93-.86c.32-.33.63-.68.93-1l.74-.9a5.91,5.91,0,0,1,.18-.79,6,6,0,0,1,.44-1.07,4.08,4.08,0,0,1,.67-.94,1.18,1.18,0,0,1,.89-.41.79.79,0,0,1,.54.19.71.71,0,0,1,.22.56,1.5,1.5,0,0,1-.22.65,7,7,0,0,1-.57.85c-.23.3-.48.61-.74.92s-.53.6-.78.85a2,2,0,0,0-.06.46Q310.22,99.26,310.91,99.26Z"/><path class="cls-8" d="M318.33,94.18c.13.09.19.18.19.26a.89.89,0,0,1-.11.38c-.23.42-.54.9-.91,1.44s-.73,1.09-1.08,1.64a16.22,16.22,0,0,0-.9,1.56,2.87,2.87,0,0,0-.38,1.22.92.92,0,0,0,.1.44.32.32,0,0,0,.32.21,1.46,1.46,0,0,0,.69-.23,5.71,5.71,0,0,0,.87-.58c.3-.24.61-.5.92-.79s.58-.55.81-.81a.41.41,0,0,1,.3-.16c.11,0,.16.06.16.19a.53.53,0,0,1-.05.23.74.74,0,0,1-.18.25l-.9.89a14.33,14.33,0,0,1-1.16,1,8.2,8.2,0,0,1-1.27.84,2.57,2.57,0,0,1-1.19.35,1,1,0,0,1-.87-.47,2.2,2.2,0,0,1-.31-1.23,3.47,3.47,0,0,1,.18-1.06,8.88,8.88,0,0,1,.47-1.14c.2-.39.42-.78.67-1.17s.51-.77.78-1.13c-.25.19-.69.55-1.31,1.06s-1.37,1.2-2.25,2a.39.39,0,0,1-.26.12.23.23,0,0,1-.15,0,.18.18,0,0,1-.08-.16.57.57,0,0,1,.21-.37c.46-.46,1-.93,1.49-1.41s1.06-.93,1.58-1.37,1-.84,1.52-1.2.92-.63,1.28-.84a.89.89,0,0,1,.38-.11A.74.74,0,0,1,318.33,94.18Zm2.26-2.62a1.29,1.29,0,0,1-.9.32.54.54,0,0,1-.61-.61,1,1,0,0,1,.12-.43,2.14,2.14,0,0,1,.3-.44,2.72,2.72,0,0,1,.42-.34.9.9,0,0,1,.48-.15.48.48,0,0,1,.4.2.87.87,0,0,1,.15.54A1.17,1.17,0,0,1,320.59,91.56Z"/><path class="cls-8" d="M323.1,94.32a1.27,1.27,0,0,1,.22-.25l.25-.2a.45.45,0,0,1,.19-.08.15.15,0,0,1,.12,0,6.21,6.21,0,0,0,.57.58l.6.57a3.77,3.77,0,0,1,.48.61,1.25,1.25,0,0,1,.2.67,1.93,1.93,0,0,1-.37,1.1,12.73,12.73,0,0,1-1,1.27c-.21.24-.42.46-.63.67s-.4.41-.57.6a5.12,5.12,0,0,0-.41.53,1,1,0,0,0-.15.46c0,.21.15.32.46.32a2.73,2.73,0,0,0,1.39-.6,12,12,0,0,0,1.83-1.6.49.49,0,0,1,.3-.17c.11,0,.17.07.17.21a.66.66,0,0,1-.23.44,13.48,13.48,0,0,1-1.17,1.1,13.11,13.11,0,0,1-1.22.9,6.79,6.79,0,0,1-1.2.61,3,3,0,0,1-1.09.22,1.47,1.47,0,0,1-.92-.3,1,1,0,0,1-.4-.83A2.09,2.09,0,0,1,321,100a15.45,15.45,0,0,1,1.24-1.41,8.82,8.82,0,0,0,1.15-1.36,1.54,1.54,0,0,0,.3-.78,1.25,1.25,0,0,0-.14-.59l-.26-.48-.93.91-1.13,1.07-1.16,1.1-1,1a.71.71,0,0,1-.35.19c-.12,0-.17-.07-.17-.19a.65.65,0,0,1,.25-.44l1-1c.38-.38.77-.75,1.17-1.13l1.15-1.1c.37-.36.69-.65,1-.89a1.31,1.31,0,0,1-.05-.15,1,1,0,0,1,0-.19A.41.41,0,0,1,323.1,94.32Z"/><path class="cls-8" d="M329.58,101.09a1.37,1.37,0,0,1-.26.49,1.62,1.62,0,0,1-.45.36,1.33,1.33,0,0,1-.65.15c-.45,0-.67-.21-.67-.63a.85.85,0,0,1,.16-.46,1.92,1.92,0,0,1,.4-.46,2.32,2.32,0,0,1,.53-.35,1.4,1.4,0,0,1,.59-.13c.19,0,.32,0,.36.15a1,1,0,0,1,.08.41A1.44,1.44,0,0,1,329.58,101.09Z"/><path class="cls-8" d="M333.78,101.09a1.57,1.57,0,0,1-.27.49,1.49,1.49,0,0,1-.45.36,1.3,1.3,0,0,1-.65.15c-.44,0-.67-.21-.67-.63a.94.94,0,0,1,.16-.46,2.17,2.17,0,0,1,.4-.46,2.32,2.32,0,0,1,.53-.35,1.4,1.4,0,0,1,.59-.13c.2,0,.32,0,.37.15a1,1,0,0,1,.07.41A1.71,1.71,0,0,1,333.78,101.09Z"/><path class="cls-8" d="M338,101.09a1.77,1.77,0,0,1-.26.49,1.62,1.62,0,0,1-.45.36,1.36,1.36,0,0,1-.65.15c-.45,0-.67-.21-.67-.63a.92.92,0,0,1,.15-.46,2.17,2.17,0,0,1,.4-.46,2.32,2.32,0,0,1,.53-.35,1.43,1.43,0,0,1,.59-.13c.2,0,.32,0,.37.15a1,1,0,0,1,.07.41A1.71,1.71,0,0,1,338,101.09Z"/></g></g></svg>